<svg width="428" height="80" viewBox="0 0 428 80" fill="none" xmlns="http://www.w3.org/2000/svg">
<g style="mix-blend-mode:darken" opacity="0.5" filter="url(#filter0_d_272_13363)">
<g opacity="0.5">
<g style="mix-blend-mode:multiply">
<g style="mix-blend-mode:multiply">
<g style="mix-blend-mode:multiply">
<path d="M396.03 83.1715V42.0447L431.65 62.6015L396.03 83.1715Z" stroke="#172659" stroke-width="0.5" stroke-miterlimit="10"/>
</g>
<g style="mix-blend-mode:multiply">
<path d="M396.029 83.1715V42.0447L360.409 62.6015L396.029 83.1715Z" stroke="#172659" stroke-width="0.5" stroke-miterlimit="10"/>
</g>
<g style="mix-blend-mode:multiply">
<path d="M324.777 83.1715V42.0447L360.397 62.6015L324.777 83.1715Z" stroke="#172659" stroke-width="0.5" stroke-miterlimit="10"/>
</g>
<g style="mix-blend-mode:multiply">
<path d="M324.776 83.1715V42.0447L289.156 62.6015L324.776 83.1715Z" stroke="#172659" stroke-width="0.5" stroke-miterlimit="10"/>
</g>
<g style="mix-blend-mode:multiply">
<path d="M253.534 83.1715V42.0447L289.154 62.6015L253.534 83.1715Z" stroke="#172659" stroke-width="0.5" stroke-miterlimit="10"/>
</g>
<g style="mix-blend-mode:multiply">
<path d="M253.535 83.1715V42.0447L217.915 62.6015L253.535 83.1715Z" stroke="#172659" stroke-width="0.5" stroke-miterlimit="10"/>
</g>
<g style="mix-blend-mode:multiply">
<path d="M431.65 103.691V62.5637L396.03 83.1337L431.65 103.691Z" stroke="#172659" stroke-width="0.5" stroke-miterlimit="10"/>
</g>
<g style="mix-blend-mode:multiply">
<path d="M360.396 103.691V62.5637L396.029 83.1337L360.396 103.691Z" stroke="#172659" stroke-width="0.5" stroke-miterlimit="10"/>
</g>
<g style="mix-blend-mode:multiply">
<path d="M360.397 103.691V62.5637L324.777 83.1337L360.397 103.691Z" stroke="#172659" stroke-width="0.5" stroke-miterlimit="10"/>
</g>
<g style="mix-blend-mode:multiply">
<path d="M289.156 103.691V62.5637L324.776 83.1337L289.156 103.691Z" stroke="#172659" stroke-width="0.5" stroke-miterlimit="10"/>
</g>
<g style="mix-blend-mode:multiply">
<path d="M289.154 103.691V62.5637L253.534 83.1337L289.154 103.691Z" stroke="#172659" stroke-width="0.5" stroke-miterlimit="10"/>
</g>
<g style="mix-blend-mode:multiply">
<path d="M217.915 103.691V62.5637L253.535 83.1337L217.915 103.691Z" stroke="#172659" stroke-width="0.5" stroke-miterlimit="10"/>
</g>
</g>
<g style="mix-blend-mode:multiply">
<g style="mix-blend-mode:multiply">
<path d="M396.031 42.1403V1.00024L431.651 21.5703L396.031 42.1403Z" stroke="#172659" stroke-width="0.5" stroke-miterlimit="10"/>
</g>
<g style="mix-blend-mode:multiply">
<path d="M396.03 42.1403V1.00024L360.41 21.5703L396.03 42.1403Z" stroke="#172659" stroke-width="0.5" stroke-miterlimit="10"/>
</g>
<g style="mix-blend-mode:multiply">
<path d="M324.777 42.1403V1.00024L360.397 21.5703L324.777 42.1403Z" stroke="#172659" stroke-width="0.5" stroke-miterlimit="10"/>
</g>
<g style="mix-blend-mode:multiply">
<path d="M324.777 42.1403V1.00024L289.157 21.5703L324.777 42.1403Z" stroke="#172659" stroke-width="0.5" stroke-miterlimit="10"/>
</g>
<g style="mix-blend-mode:multiply">
<path d="M253.535 42.1403V1.00024L289.155 21.5703L253.535 42.1403Z" stroke="#172659" stroke-width="0.5" stroke-miterlimit="10"/>
</g>
<g style="mix-blend-mode:multiply">
<path d="M253.536 42.1403V1.00024L217.916 21.5703L253.536 42.1403Z" stroke="#172659" stroke-width="0.5" stroke-miterlimit="10"/>
</g>
</g>
<g style="mix-blend-mode:multiply">
<g style="mix-blend-mode:multiply">
<path d="M431.651 62.6572V21.5171L396.031 42.0871L431.651 62.6572Z" stroke="#172659" stroke-width="0.5" stroke-miterlimit="10"/>
</g>
<g style="mix-blend-mode:multiply">
<path d="M360.396 62.6572V21.5171L396.03 42.0871L360.396 62.6572Z" stroke="#172659" stroke-width="0.5" stroke-miterlimit="10"/>
</g>
<g style="mix-blend-mode:multiply">
<path d="M360.397 62.6572V21.5171L324.777 42.0871L360.397 62.6572Z" stroke="#172659" stroke-width="0.5" stroke-miterlimit="10"/>
</g>
<g style="mix-blend-mode:multiply">
<path d="M289.157 62.6572V21.5171L324.777 42.0871L289.157 62.6572Z" stroke="#172659" stroke-width="0.5" stroke-miterlimit="10"/>
</g>
<g style="mix-blend-mode:multiply">
<path d="M289.155 62.6572V21.5171L253.535 42.0871L289.155 62.6572Z" stroke="#172659" stroke-width="0.5" stroke-miterlimit="10"/>
</g>
</g>
<g style="mix-blend-mode:multiply">
<g style="mix-blend-mode:multiply">
<path d="M217.731 103.918V62.7776L253.352 83.3476L217.731 103.918Z" stroke="#172659" stroke-width="0.5" stroke-miterlimit="10"/>
</g>
<g style="mix-blend-mode:multiply">
<path d="M217.73 103.918V62.7776L182.11 83.3476L217.73 103.918Z" stroke="#172659" stroke-width="0.5" stroke-miterlimit="10"/>
</g>
<g style="mix-blend-mode:multiply">
<path d="M146.476 103.918V62.7776L182.109 83.3476L146.476 103.918Z" stroke="#172659" stroke-width="0.5" stroke-miterlimit="10"/>
</g>
</g>
<g style="mix-blend-mode:multiply">
<g style="mix-blend-mode:multiply">
<path d="M146.476 103.918V62.7776L110.856 83.3476L146.476 103.918Z" stroke="#172659" stroke-width="0.5" stroke-miterlimit="10"/>
</g>
</g>
<g style="mix-blend-mode:multiply">
<g style="mix-blend-mode:multiply">
<path d="M217.73 62.8696V21.7295L253.351 42.2995L217.73 62.8696Z" stroke="#172659" stroke-width="0.5" stroke-miterlimit="10"/>
</g>
<g style="mix-blend-mode:multiply">
<path d="M217.729 62.8693V21.7292L182.109 42.2993L217.729 62.8693Z" stroke="#172659" stroke-width="0.5" stroke-miterlimit="10"/>
</g>
<g style="mix-blend-mode:multiply">
<path d="M146.476 62.8693V21.7292L182.109 42.2993L146.476 62.8693Z" stroke="#172659" stroke-width="0.5" stroke-miterlimit="10"/>
</g>
</g>
<g style="mix-blend-mode:multiply">
<g style="mix-blend-mode:multiply">
<path d="M146.476 62.8696V21.7295L110.856 42.2995L146.476 62.8696Z" stroke="#172659" stroke-width="0.5" stroke-miterlimit="10"/>
</g>
</g>
<g style="mix-blend-mode:multiply">
<g style="mix-blend-mode:multiply">
<path d="M253.352 83.3856V42.2588L217.731 62.8288L253.352 83.3856Z" stroke="#172659" stroke-width="0.5" stroke-miterlimit="10"/>
</g>
<g style="mix-blend-mode:multiply">
<path d="M182.11 83.3856V42.2588L217.73 62.8288L182.11 83.3856Z" stroke="#172659" stroke-width="0.5" stroke-miterlimit="10"/>
</g>
<g style="mix-blend-mode:multiply">
<path d="M182.109 83.3856V42.2588L146.475 62.8288L182.109 83.3856Z" stroke="#172659" stroke-width="0.5" stroke-miterlimit="10"/>
</g>
</g>
<g style="mix-blend-mode:multiply">
<g style="mix-blend-mode:multiply">
<path d="M110.856 83.3856V42.2588L146.476 62.8288L110.856 83.3856Z" stroke="#172659" stroke-width="0.5" stroke-miterlimit="10"/>
</g>
</g>
<g style="mix-blend-mode:multiply">
<g style="mix-blend-mode:multiply">
<path d="M253.352 42.3525V1.2124L217.731 21.7824L253.352 42.3525Z" stroke="#172659" stroke-width="0.5" stroke-miterlimit="10"/>
</g>
<g style="mix-blend-mode:multiply">
<path d="M182.11 42.3527V1.21265L217.73 21.7827L182.11 42.3527Z" stroke="#172659" stroke-width="0.5" stroke-miterlimit="10"/>
</g>
<g style="mix-blend-mode:multiply">
<path d="M182.109 42.3527V1.21265L146.476 21.7827L182.109 42.3527Z" stroke="#172659" stroke-width="0.5" stroke-miterlimit="10"/>
</g>
</g>
<g style="mix-blend-mode:multiply">
<g style="mix-blend-mode:multiply">
<path d="M110.856 42.3525V1.2124L146.476 21.7824L110.856 42.3525Z" stroke="#172659" stroke-width="0.5" stroke-miterlimit="10"/>
</g>
</g>
</g>
</g>
<g opacity="0.5">
<g style="mix-blend-mode:multiply">
<g style="mix-blend-mode:multiply">
<g style="mix-blend-mode:multiply">
<path d="M-31.3445 83.1715V42.0447L4.27588 62.6015L-31.3445 83.1715Z" stroke="#172659" stroke-width="0.5" stroke-miterlimit="10"/>
</g>
<g style="mix-blend-mode:multiply">
<path d="M39.909 83.1715V42.0447L75.5293 62.6015L39.909 83.1715Z" stroke="#172659" stroke-width="0.5" stroke-miterlimit="10"/>
</g>
<g style="mix-blend-mode:multiply">
<path d="M39.9077 83.1715V42.0447L4.28736 62.6015L39.9077 83.1715Z" stroke="#172659" stroke-width="0.5" stroke-miterlimit="10"/>
</g>
<g style="mix-blend-mode:multiply">
<path d="M111.15 83.1712V42.0444L75.5301 62.6012L111.15 83.1712Z" stroke="#172659" stroke-width="0.5" stroke-miterlimit="10"/>
</g>
<g style="mix-blend-mode:multiply">
<path d="M4.28736 103.691V62.5637L39.9077 83.1337L4.28736 103.691Z" stroke="#172659" stroke-width="0.5" stroke-miterlimit="10"/>
</g>
<g style="mix-blend-mode:multiply">
<path d="M4.28857 103.691V62.5637L-31.345 83.1337L4.28857 103.691Z" stroke="#172659" stroke-width="0.5" stroke-miterlimit="10"/>
</g>
<g style="mix-blend-mode:multiply">
<path d="M75.5301 103.691V62.5637L111.15 83.1337L75.5301 103.691Z" stroke="#172659" stroke-width="0.5" stroke-miterlimit="10"/>
</g>
<g style="mix-blend-mode:multiply">
<path d="M75.5293 103.691V62.5637L39.909 83.1337L75.5293 103.691Z" stroke="#172659" stroke-width="0.5" stroke-miterlimit="10"/>
</g>
</g>
<g style="mix-blend-mode:multiply">
<g style="mix-blend-mode:multiply">
<path d="M-31.3454 42.1403V1.00024L4.2749 21.5703L-31.3454 42.1403Z" stroke="#172659" stroke-width="0.5" stroke-miterlimit="10"/>
</g>
<g style="mix-blend-mode:multiply">
<path d="M39.909 42.1403V1.00024L75.5293 21.5703L39.909 42.1403Z" stroke="#172659" stroke-width="0.5" stroke-miterlimit="10"/>
</g>
<g style="mix-blend-mode:multiply">
<path d="M39.9077 42.1403V1.00024L4.28736 21.5703L39.9077 42.1403Z" stroke="#172659" stroke-width="0.5" stroke-miterlimit="10"/>
</g>
<g style="mix-blend-mode:multiply">
<path d="M111.149 42.1403V1.00024L75.5291 21.5703L111.149 42.1403Z" stroke="#172659" stroke-width="0.5" stroke-miterlimit="10"/>
</g>
</g>
<g style="mix-blend-mode:multiply">
<g style="mix-blend-mode:multiply">
<path d="M4.28834 62.6572V21.5171L39.9087 42.0871L4.28834 62.6572Z" stroke="#172659" stroke-width="0.5" stroke-miterlimit="10"/>
</g>
<g style="mix-blend-mode:multiply">
<path d="M4.28955 62.6572V21.5171L-31.3441 42.0871L4.28955 62.6572Z" stroke="#172659" stroke-width="0.5" stroke-miterlimit="10"/>
</g>
<g style="mix-blend-mode:multiply">
<path d="M75.5301 62.6572V21.5171L111.15 42.0871L75.5301 62.6572Z" stroke="#172659" stroke-width="0.5" stroke-miterlimit="10"/>
</g>
<g style="mix-blend-mode:multiply">
<path d="M75.5303 62.6572V21.5171L39.91 42.0871L75.5303 62.6572Z" stroke="#172659" stroke-width="0.5" stroke-miterlimit="10"/>
</g>
</g>
</g>
</g>
</g>
<defs>
<filter id="filter0_d_272_13363" x="-463.5" y="0.567139" width="1718.86" height="193.433" filterUnits="userSpaceOnUse" color-interpolation-filters="sRGB">
<feFlood flood-opacity="0" result="BackgroundImageFix"/>
<feColorMatrix in="SourceAlpha" type="matrix" values="0 0 0 0 0 0 0 0 0 0 0 0 0 0 0 0 0 0 127 0" result="hardAlpha"/>
<feOffset dy="4"/>
<feGaussianBlur stdDeviation="2"/>
<feComposite in2="hardAlpha" operator="out"/>
<feColorMatrix type="matrix" values="0 0 0 0 0 0 0 0 0 0 0 0 0 0 0 0 0 0 0.25 0"/>
<feBlend mode="normal" in2="BackgroundImageFix" result="effect1_dropShadow_272_13363"/>
<feBlend mode="normal" in="SourceGraphic" in2="effect1_dropShadow_272_13363" result="shape"/>
</filter>
</defs>
</svg>
