<svg width="92" height="49" viewBox="0 0 92 49" fill="none" xmlns="http://www.w3.org/2000/svg">
<path d="M34.8295 12.5304L32.7302 11.3123C32.52 11.191 32.2559 11.3419 32.2559 11.5872V16.8234C32.2559 17.0687 32.52 17.2196 32.7302 17.0983L34.8295 15.8802C34.9265 15.8236 34.9885 15.7185 34.9885 15.6053V12.8026C34.9885 12.6894 34.9292 12.5843 34.8295 12.5277" fill="white"/>
<path d="M35.1554 9.35635L37.57 7.96307C37.667 7.90648 37.729 7.80407 37.729 7.69088L37.7398 5.24926C37.7398 5.00403 37.4757 4.85311 37.2655 4.97438L32.7299 7.59386C32.5197 7.71514 32.5197 8.01966 32.7299 8.14094L34.8401 9.35905C34.9371 9.41564 35.0583 9.41564 35.1554 9.35905" fill="white"/>
<path d="M34.8377 19.0417L32.7114 20.2706C32.5012 20.3919 32.5012 20.6937 32.7114 20.8177L37.2631 23.4857C37.4733 23.6096 37.7401 23.456 37.7401 23.2108L37.7293 20.7233C37.7293 20.6102 37.67 20.5077 37.573 20.4512L35.1584 19.0444C35.0614 18.9878 34.9401 18.9878 34.8404 19.0444" fill="white"/>
<path d="M40.4751 22.6742L40.4832 25.1024C40.4832 25.2155 40.5425 25.318 40.6422 25.3745L45.8192 28.3659C45.9162 28.4225 46.0374 28.4225 46.1345 28.3659L51.3088 25.3745C51.4058 25.318 51.465 25.2155 51.4677 25.1024L51.4785 22.6742C51.4785 22.429 51.2144 22.2754 51.0042 22.3993L46.1345 25.2021C46.0374 25.2587 45.9162 25.2587 45.8192 25.2021L40.9494 22.3993C40.7392 22.2781 40.4751 22.4317 40.4751 22.6742Z" fill="white"/>
<path d="M51.4758 12.7982V15.6009C51.4758 15.7141 51.4165 15.8192 51.3195 15.8758L46.1398 18.8834C46.0428 18.94 45.9188 18.94 45.8218 18.8834L40.6422 15.8758C40.5451 15.8192 40.4832 15.7141 40.4832 15.6009V12.7982C40.4832 12.685 40.5424 12.5799 40.6422 12.5233L45.8218 9.55079C45.9188 9.4942 46.0401 9.4942 46.1371 9.55079L51.3168 12.5233C51.4138 12.5799 51.4758 12.685 51.4758 12.7982ZM37.7505 11.2136V17.1829C37.7505 17.296 37.8098 17.4011 37.9095 17.4577L45.8218 22.0284C45.9188 22.0849 46.0401 22.0849 46.1371 22.0284L54.0495 17.4577C54.1465 17.4011 54.2085 17.296 54.2085 17.1829V11.2136C54.2085 11.1004 54.1492 10.9953 54.0495 10.9387L46.1371 6.38424C46.0401 6.32765 45.9188 6.32765 45.8218 6.38424L37.9095 10.9387C37.8125 10.9953 37.7505 11.1004 37.7505 11.2136Z" fill="white"/>
<path d="M57.1302 15.8798L59.2295 17.098C59.4397 17.2192 59.7038 17.0683 59.7038 16.8231V11.5868C59.7038 11.3443 59.4397 11.1906 59.2295 11.3119L57.1302 12.53C57.0332 12.5866 56.9712 12.6917 56.9712 12.8049V15.6077C56.9712 15.7208 57.0305 15.8259 57.1302 15.8825" fill="white"/>
<path d="M57.1112 9.35674L59.2214 8.13863C59.4316 8.01735 59.4316 7.71283 59.2214 7.59155L54.6858 4.97207C54.4729 4.8508 54.2088 5.00441 54.2114 5.24696L54.2222 7.68857C54.2222 7.80176 54.2842 7.90417 54.3812 7.96076L56.7959 9.35405C56.8929 9.41064 57.0142 9.41064 57.1112 9.35405" fill="white"/>
<path d="M56.7932 19.0424L54.3785 20.4492C54.2815 20.5058 54.2222 20.6082 54.2222 20.7214L54.2114 23.2088C54.2114 23.4541 54.4755 23.6077 54.6884 23.4837L59.2402 20.8157C59.4504 20.6917 59.4477 20.3899 59.2402 20.2686L57.1139 19.0424C57.0169 18.9859 56.8929 18.9859 56.7959 19.0424" fill="white"/>
<path d="M51.4759 5.73685L51.4651 3.29523C51.4651 3.18205 51.4031 3.07964 51.3061 3.02305L46.1291 0.0424453C46.0321 -0.0141484 45.9108 -0.0141484 45.8138 0.0424453L40.6395 3.02305C40.5425 3.07964 40.4805 3.18474 40.4805 3.29523L40.4697 5.73685C40.4697 5.98209 40.7338 6.133 40.944 6.01173L45.8138 3.20361C45.9108 3.14701 46.0321 3.14701 46.1291 3.20361L50.9988 6.01173C51.2091 6.133 51.4732 5.97939 51.4732 5.73685" fill="white"/>
<path d="M7.12272 41.9922H1.63043V47.8429C1.63043 48.0396 1.46875 48.2013 1.27202 48.2013H0.358431C0.161701 48.2013 0 48.0396 0 47.8429V38.1115C0 35.7318 1.30705 34.7832 3.81065 34.7832C4.86706 34.7832 6.54871 34.8182 7.30059 34.891C7.40839 34.9099 7.47845 35.0338 7.47845 35.1416V36.0363C7.47845 36.1603 7.40569 36.2519 7.28173 36.2519H3.82951C1.93228 36.2519 1.62774 36.7532 1.62774 38.1115V40.5989H7.12002C7.31675 40.5989 7.47845 40.7606 7.47845 40.9573V41.6364C7.47845 41.8332 7.31675 41.9949 7.12002 41.9949" fill="white"/>
<path d="M10.7365 48.201H9.87681C9.68008 48.201 9.51838 48.0393 9.51838 47.8426V38.7175C9.51838 38.5208 9.68008 38.3591 9.87681 38.3591H10.7365C10.9332 38.3591 11.0949 38.5208 11.0949 38.7175V47.8426C11.0949 48.0393 10.9332 48.201 10.7365 48.201ZM10.7715 36.9389H9.85794C9.66121 36.9389 9.49951 36.7772 9.49951 36.5804V35.1494C9.49951 34.9527 9.66121 34.791 9.85794 34.791H10.7715C10.9683 34.791 11.1299 34.9527 11.1299 35.1494V36.5804C11.1299 36.7772 10.9683 36.9389 10.7715 36.9389Z" fill="white"/>
<path d="M20.5947 48.2003H19.665C19.4682 48.2003 19.3416 48.0386 19.3416 47.8418V41.4548C19.3416 40.1127 19.002 39.5953 17.7839 39.5953H16.5146C15.2992 39.5953 14.9569 40.1154 14.9569 41.4548V47.8418C14.9569 48.0386 14.8329 48.2003 14.6335 48.2003H13.7038C13.507 48.2003 13.3804 48.0386 13.3804 47.8418V41.4548C13.3804 38.7006 15.2938 38.2344 16.5119 38.2344H17.7812C18.9966 38.2344 20.9127 38.7006 20.9127 41.4548V47.8418C20.9127 48.0386 20.7887 48.2003 20.592 48.2003" fill="white"/>
<path d="M27.356 48.2179C27.0165 48.2718 26.2835 48.3257 25.6394 48.3257C23.9577 48.3257 22.9902 47.7706 22.9902 45.8383V36.6054C22.9902 36.4249 23.1519 36.3009 23.3487 36.2659L24.2245 36.123H24.2596C24.4374 36.123 24.5641 36.2847 24.5641 36.4626V38.3598H27.356C27.5528 38.3598 27.6956 38.4838 27.6956 38.6832V39.2923C27.6956 39.4702 27.5528 39.613 27.356 39.613H24.5641V45.8383C24.5641 46.8758 24.9036 47.0537 25.8873 47.0537H27.3372C27.5878 47.0537 27.7118 47.1265 27.7118 47.3043V47.9134C27.7118 48.0751 27.6228 48.1829 27.3533 48.2179" fill="white"/>
<path d="M44.1187 48.1275C43.5285 48.2353 42.7227 48.3242 41.8819 48.3242C39.4484 48.3242 38.0713 46.6075 38.0713 43.9773V42.5813C38.0713 39.9511 39.4322 38.2344 41.8819 38.2344C42.7039 38.2344 43.5285 38.3233 44.1187 38.4311C44.4044 38.485 44.4771 38.5739 44.4771 38.8246V39.4687C44.4771 39.6465 44.3343 39.7355 44.1726 39.7355H44.0999C43.3129 39.6465 42.7578 39.6115 41.8819 39.6115C40.4509 39.6115 39.6451 40.5601 39.6451 42.5813V43.9773C39.6451 45.9823 40.432 46.9471 41.8819 46.9471C42.7578 46.9471 43.3129 46.9121 44.0999 46.8204H44.1726C44.3343 46.8204 44.4771 46.9094 44.4771 47.0899V47.734C44.4771 47.9658 44.4044 48.0736 44.1187 48.1275Z" fill="white"/>
<path d="M53.2948 48.2012H52.4351C52.2384 48.2012 52.0767 48.0395 52.0767 47.8427V41.833C52.0767 40.3481 51.3598 39.5774 49.7509 39.5774C49.0341 39.5774 48.2472 39.6852 47.6947 39.8469V47.8427C47.6947 48.0395 47.533 48.2012 47.3363 48.2012H46.4766C46.2799 48.2012 46.1182 48.0395 46.1182 47.8427V35.0876C46.1182 34.9097 46.2448 34.748 46.4416 34.748H47.3551C47.533 34.748 47.6947 34.8909 47.6947 35.0876V38.4859C48.3038 38.3431 49.0556 38.2353 49.7509 38.2353C52.4351 38.2353 53.6505 39.704 53.6505 41.8303V47.84C53.6505 48.0368 53.4888 48.1985 53.2921 48.1985" fill="white"/>
<path d="M58.8601 48.3065C57.6959 48.3065 56.8039 48.1825 56.087 48.1098C55.9253 48.0909 55.7636 48.002 55.7636 47.8241V47.5924C55.7636 47.4145 55.9253 47.3606 56.1032 47.3606H56.1759C57.1057 47.4334 57.8764 47.5573 58.8601 47.5573C61.5604 47.5573 62.1883 46.3581 62.1883 44.892C62.1883 43.5688 61.4203 43.1026 59.4341 41.8683L58.3076 41.1703C56.6799 40.1678 55.4995 39.3081 55.4995 37.7181C55.4995 35.3735 57.5935 34.8184 59.6848 34.8184C60.6334 34.8184 61.582 34.9262 62.3501 34.9962C62.5279 35.0151 62.6546 35.104 62.6546 35.2657V35.4975C62.6546 35.6753 62.5118 35.7481 62.315 35.7481C61.9216 35.7481 60.5795 35.5702 59.6659 35.5702C57.3051 35.5702 56.3026 36.2494 56.3026 37.7343C56.3026 38.8446 57.1246 39.5049 58.7173 40.4723L59.8626 41.1703C61.8488 42.3696 63.0103 43.2454 63.0103 44.892C63.0103 46.5386 62.3123 48.3092 58.8601 48.3092" fill="white"/>
<path d="M70.6129 39.4349C69.9688 39.3271 68.9852 39.2031 68.1255 39.2031C66.1205 39.2031 65.4063 40.5452 65.4063 42.8521V43.9597C65.4063 46.2665 66.1232 47.6086 68.1255 47.6086C68.9852 47.6086 69.9688 47.4846 70.6129 47.3768V39.4322V39.4349ZM71.133 47.9697C70.3461 48.1314 69.1469 48.3093 68.1282 48.3093C65.6596 48.3093 64.6221 46.5387 64.6221 43.9624V42.8547C64.6221 40.2784 65.6596 38.5078 68.1282 38.5078C69.1469 38.5078 70.3461 38.6857 71.133 38.8474C71.3486 38.9013 71.4025 38.9713 71.4025 39.1869V47.6329C71.4025 47.8485 71.3486 47.9185 71.133 47.9724" fill="white"/>
<path d="M77.0349 48.3063H76.6954C75.48 48.3063 73.4561 47.6622 73.4561 44.7113V38.9333C73.4561 38.7554 73.58 38.5938 73.7606 38.5938H73.9385C74.1163 38.5938 74.243 38.7554 74.243 38.9333V44.7113C74.243 47.002 75.4773 47.5733 76.6954 47.5733H77.0349C78.2531 47.5733 79.4873 47.002 79.4873 44.7113V38.9333C79.4873 38.7554 79.6113 38.5938 79.7919 38.5938H79.9697C80.1476 38.5938 80.2743 38.7554 80.2743 38.9333V44.7113C80.2743 47.6622 78.2531 48.3063 77.0349 48.3063Z" fill="white"/>
<path d="M88.0544 39.435C87.3752 39.2921 86.2649 39.2032 85.5669 39.2032C83.5996 39.2032 82.8477 40.4186 82.8477 42.7821V43.9625C82.8477 46.2693 83.5646 47.6114 85.5669 47.6114C86.4266 47.6114 87.4103 47.4874 88.0544 47.3796V39.435ZM88.5745 47.9698C87.7875 48.1315 86.5883 48.3094 85.5696 48.3094C83.101 48.3094 82.0635 46.5388 82.0635 43.9625V42.7821C82.0635 39.9551 83.2439 38.5052 85.5696 38.5052C86.2676 38.5052 87.3402 38.613 88.057 38.7747V35.2497C88.057 35.0718 88.181 34.9102 88.3615 34.9102H88.5394C88.7173 34.9102 88.8439 35.0718 88.8439 35.2497V47.6303C88.8439 47.8459 88.7901 47.9159 88.5745 47.9698Z" fill="white"/>
<path d="M91.6144 48.3065H91.5066C91.3287 48.3065 91.167 48.1448 91.167 47.967V38.9308C91.167 38.753 91.3287 38.5913 91.5066 38.5913H91.6144C91.7922 38.5913 91.9539 38.753 91.9539 38.9308V47.967C91.9539 48.1448 91.7922 48.3065 91.6144 48.3065ZM91.6144 36.8207H91.5066C91.3287 36.8207 91.167 36.6779 91.167 36.4811V35.1579C91.167 34.9801 91.3287 34.8184 91.5066 34.8184H91.6144C91.7922 34.8184 91.9539 34.9801 91.9539 35.1579V36.4811C91.9539 36.6779 91.7922 36.8207 91.6144 36.8207Z" fill="white"/>
<path d="M32.6332 38.2351C30.0757 38.2351 28.6743 40.1135 28.6743 42.6548V43.908C28.6743 47.344 30.8329 48.3277 32.8892 48.3277C34.0884 48.3277 34.9212 48.2199 35.9426 48.0231C36.2282 47.9692 36.2767 47.8453 36.2767 47.6108V47.0018C36.2767 46.8239 36.2121 46.6433 36.0692 46.6433H35.9803C35.1583 46.9236 33.986 46.9479 32.9485 46.9479C31.3019 46.9479 30.364 46.0531 30.364 43.9969V42.4931C30.364 40.6498 31.2453 39.6122 32.7841 39.6122C34.3229 39.6122 35.1502 40.5797 35.1502 42.4931V42.7006H31.4097C31.2237 42.7006 31.0728 42.8516 31.0728 43.0375V43.4876C31.0728 43.6735 31.2237 43.8244 31.4097 43.8244H36.301C36.5166 43.8244 36.557 43.6169 36.557 43.3851V42.6333C36.557 40.0919 35.2446 38.2324 32.6332 38.2324" fill="white"/>
</svg>
