<svg width="144" height="39" viewBox="0 0 144 39" fill="none" xmlns="http://www.w3.org/2000/svg">
<path d="M51.7282 31.5283H45.8217V37.8203C45.8217 38.0319 45.6477 38.2059 45.4362 38.2059H44.4534C44.2419 38.2059 44.0679 38.0319 44.0679 37.8203V27.3518C44.0679 24.7927 45.4737 23.7725 48.1659 23.7725C49.3021 23.7725 51.1106 23.81 51.9193 23.8885C52.0353 23.9089 52.1103 24.042 52.1103 24.158V25.1203C52.1103 25.2567 52.0353 25.3523 51.8988 25.3523H48.1864C46.1459 25.3523 45.8183 25.8914 45.8183 27.3518V30.0269H51.7248C51.9363 30.0269 52.1103 30.201 52.1103 30.4125V31.1427C52.1103 31.3543 51.9363 31.5283 51.7248 31.5283" fill="white"/>
<path d="M55.6149 38.2061H54.6902C54.4787 38.2061 54.3047 38.0321 54.3047 37.8206V28.0072C54.3047 27.7956 54.4787 27.6216 54.6902 27.6216H55.6149C55.8265 27.6216 56.0005 27.7956 56.0005 28.0072V37.8206C56.0005 38.0321 55.8265 38.2061 55.6149 38.2061ZM55.6525 25.9292H54.6698C54.4582 25.9292 54.2842 25.7552 54.2842 25.5436V24.0047C54.2842 23.7932 54.4582 23.6191 54.6698 23.6191H55.6525C55.864 23.6191 56.038 23.7932 56.038 24.0047V25.5436C56.038 25.7552 55.864 25.9292 55.6525 25.9292Z" fill="white"/>
<path d="M66.2163 38.2061H65.2165C65.005 38.2061 64.8719 38.0321 64.8719 37.8206V30.9519C64.8719 29.5085 64.5068 28.9523 63.1965 28.9523H61.8282C60.5214 28.9523 60.1529 29.5119 60.1529 30.9519V37.8206C60.1529 38.0321 60.0164 38.2061 59.8048 38.2061H58.8051C58.5935 38.2061 58.457 38.0321 58.457 37.8206V30.9519C58.457 27.9901 60.518 27.4885 61.8248 27.4885H63.1931C64.5 27.4885 66.5609 27.9901 66.5609 30.9519V37.8206C66.5609 38.0321 66.4278 38.2061 66.2163 38.2061Z" fill="white"/>
<path d="M73.4915 38.223C73.1264 38.281 72.3382 38.339 71.6455 38.339C69.8371 38.339 68.7964 37.7419 68.7964 35.6639V25.7345C68.7964 25.5434 68.9704 25.4069 69.182 25.3694L70.1237 25.2158H70.1613C70.3523 25.2158 70.4888 25.3898 70.4888 25.5809V27.6214H73.4915C73.7031 27.6214 73.8566 27.7579 73.8566 27.9694V28.6246C73.8566 28.8157 73.7031 28.9726 73.4915 28.9726H70.4888V35.6707C70.4888 36.7865 70.8539 36.981 71.9117 36.981H73.4711C73.7406 36.981 73.8737 37.0594 73.8737 37.2505V37.9057C73.8737 38.0797 73.7781 38.1957 73.4881 38.2332" fill="white"/>
<path d="M91.5212 38.1277C90.8865 38.2437 90.0198 38.3392 89.1156 38.3392C86.4985 38.3392 85.0176 36.4932 85.0176 33.6645V32.1632C85.0176 29.3345 86.4814 27.4885 89.1156 27.4885C89.9993 27.4885 90.8865 27.5841 91.5212 27.7001C91.8283 27.7581 91.9067 27.8536 91.9067 28.1232V28.8159C91.9067 29.0069 91.7532 29.1059 91.5792 29.1059H91.5007C90.6545 29.0104 90.0573 28.9728 89.1156 28.9728C87.5767 28.9728 86.71 29.9931 86.71 32.1666V33.668C86.71 35.8244 87.5562 36.8617 89.1156 36.8617C90.0573 36.8617 90.6545 36.8242 91.5007 36.7253H91.5792C91.7532 36.7253 91.9067 36.8208 91.9067 37.0153V37.708C91.9067 37.957 91.8317 38.0731 91.5212 38.1311" fill="white"/>
<path d="M101.392 38.2061H100.467C100.256 38.2061 100.082 38.0321 100.082 37.8205V31.3545C100.082 29.7576 99.3107 28.9284 97.5808 28.9284C96.8096 28.9284 95.9634 29.0444 95.3663 29.2185V37.8205C95.3663 38.0321 95.1922 38.2061 94.9807 38.2061H94.056C93.8444 38.2061 93.6704 38.0321 93.6704 37.8205V24.1002C93.6704 23.9091 93.8035 23.7351 94.015 23.7351H94.9977C95.1888 23.7351 95.3629 23.8887 95.3629 24.1002V27.758C96.018 27.6045 96.8267 27.4885 97.5773 27.4885C100.464 27.4885 101.771 29.0649 101.771 31.3579V37.8239C101.771 38.0355 101.597 38.2095 101.385 38.2095" fill="white"/>
<path d="M107.374 38.322C106.122 38.322 105.16 38.1855 104.392 38.1104C104.218 38.09 104.044 37.9944 104.044 37.8033V37.5543C104.044 37.3632 104.218 37.3052 104.409 37.3052H104.488C105.487 37.3837 106.316 37.5167 107.374 37.5167C110.281 37.5167 110.954 36.2269 110.954 34.6505C110.954 33.2276 110.128 32.7261 107.992 31.3987L106.781 30.648C105.03 29.5698 103.761 28.6485 103.761 26.9356C103.761 24.414 106.013 23.8169 108.265 23.8169C109.285 23.8169 110.305 23.9329 111.131 24.008C111.322 24.0284 111.459 24.124 111.459 24.298V24.5471C111.459 24.7382 111.305 24.8167 111.093 24.8167C110.67 24.8167 109.227 24.6256 108.244 24.6256C105.702 24.6256 104.627 25.3558 104.627 26.9527C104.627 28.1469 105.511 28.8567 107.224 29.8974L108.456 30.648C110.592 31.9378 111.841 32.8796 111.841 34.6505C111.841 36.4214 111.09 38.3254 107.378 38.3254" fill="white"/>
<path d="M120.016 28.7749C119.323 28.6589 118.265 28.5258 117.341 28.5258C115.184 28.5258 114.417 29.9692 114.417 32.4532V33.6475C114.417 36.1315 115.188 37.5749 117.341 37.5749C118.265 37.5749 119.323 37.4418 120.016 37.3258V28.7817V28.7749ZM120.575 37.9536C119.729 38.1277 118.439 38.3187 117.344 38.3187C114.69 38.3187 113.574 36.4147 113.574 33.6441V32.4498C113.574 29.6791 114.69 27.7751 117.344 27.7751C118.443 27.7751 119.729 27.9662 120.575 28.1403C120.808 28.1983 120.866 28.2767 120.866 28.5054V37.5885C120.866 37.8206 120.808 37.8956 120.575 37.9536Z" fill="white"/>
<path d="M126.926 38.3221H126.56C125.254 38.3221 123.077 37.6294 123.077 34.4527V28.2357C123.077 28.0446 123.213 27.8706 123.404 27.8706H123.595C123.786 27.8706 123.923 28.0446 123.923 28.2357V34.4527C123.923 36.9162 125.25 37.5304 126.56 37.5304H126.926C128.236 37.5304 129.563 36.9162 129.563 34.4527V28.2357C129.563 28.0446 129.696 27.8706 129.891 27.8706H130.082C130.273 27.8706 130.409 28.0446 130.409 28.2357V34.4527C130.409 37.626 128.236 38.3221 126.926 38.3221Z" fill="white"/>
<path d="M138.776 28.7747C138.046 28.6211 136.852 28.5256 136.101 28.5256C133.985 28.5256 133.177 29.8359 133.177 32.3745V33.6438C133.177 36.1279 133.948 37.5712 136.101 37.5712C137.026 37.5712 138.083 37.4382 138.776 37.3221V28.7781V28.7747ZM139.336 37.9534C138.49 38.1274 137.2 38.3185 136.104 38.3185C133.45 38.3185 132.334 36.4145 132.334 33.6438V32.3745C132.334 29.3343 133.603 27.7749 136.104 27.7749C136.855 27.7749 138.008 27.8909 138.78 28.0649V24.274C138.78 24.0795 138.916 23.9089 139.107 23.9089H139.298C139.489 23.9089 139.626 24.083 139.626 24.274V37.5917C139.626 37.8237 139.568 37.8988 139.336 37.9568" fill="white"/>
<path d="M142.605 38.322H142.489C142.294 38.322 142.124 38.148 142.124 37.9569V28.2391C142.124 28.048 142.298 27.8739 142.489 27.8739H142.605C142.796 27.8739 142.97 28.048 142.97 28.2391V37.9569C142.97 38.148 142.796 38.322 142.605 38.322ZM142.605 25.9666H142.489C142.294 25.9666 142.124 25.813 142.124 25.6014V24.1786C142.124 23.9875 142.298 23.8135 142.489 23.8135H142.605C142.796 23.8135 142.97 23.9875 142.97 24.1786V25.6014C142.97 25.813 142.796 25.9666 142.605 25.9666Z" fill="white"/>
<path d="M79.1656 27.4885C76.412 27.4885 74.9072 29.5085 74.9072 32.2417V33.5895C74.9072 37.2848 77.2275 38.3426 79.442 38.3426C80.7318 38.3426 81.6292 38.2266 82.7245 38.015C83.0316 37.957 83.0828 37.824 83.0828 37.5715V36.9163C83.0828 36.7253 83.0145 36.5308 82.861 36.5308H82.7654C81.8817 36.8344 80.6226 36.8583 79.5034 36.8583C77.7325 36.8583 76.7225 35.8961 76.7225 33.685V32.0677C76.7225 30.0852 77.6711 28.9694 79.326 28.9694C80.9809 28.9694 81.8715 30.0067 81.8715 32.0677V32.2894H77.8485C77.6472 32.2894 77.4834 32.4532 77.4834 32.6545V33.1391C77.4834 33.3404 77.6472 33.5042 77.8485 33.5042H83.1101C83.3421 33.5042 83.3865 33.2824 83.3865 33.0333V32.2246C83.3865 29.4915 81.9772 27.4919 79.1656 27.4919" fill="white"/>
<path d="M49.023 8.83078V5.08422H46.5082C44.8124 5.08422 43.973 6.32625 43.973 8.83078C43.973 11.3353 44.8124 12.5978 46.5082 12.5978C48.2041 12.5978 49.023 11.3353 49.023 8.83078ZM52.831 13.4372H52.2953C50.8587 13.4372 49.8795 12.8571 49.3403 11.7141C48.8422 12.8571 47.8629 13.4372 46.3683 13.4372C44.1538 13.4372 43.0347 11.8949 43.0347 8.83078C43.0347 7.16905 43.4134 5.9475 44.1914 5.16612C44.7305 4.62358 45.4471 4.36426 46.3649 4.36426H49.627C49.8078 4.36426 49.9579 4.51098 49.9579 4.69524V9.93631C49.9579 11.7175 50.7769 12.6012 52.4318 12.6012H52.8105L52.831 13.444V13.4372Z" fill="white"/>
<path d="M56.5426 10.0933C56.5426 12.0757 55.2664 13.4372 53.2499 13.4372H52.2944V12.5944H53.1304C54.7853 12.5944 55.6042 11.714 55.6042 9.92949V4.69523C55.6042 4.51097 55.7544 4.36084 55.9386 4.36084H56.2082C56.3925 4.36084 56.5426 4.51097 56.5426 4.69523V10.0933Z" fill="white"/>
<path d="M59.4023 6.37386C59.2624 6.2442 59.259 6.0224 59.3955 5.88933C60.0131 5.28196 60.774 4.98511 61.6714 4.98511C63.7255 4.98511 65.0836 6.26808 65.0836 8.34949V13.437H59.1498C58.9656 13.437 58.8154 13.2869 58.8154 13.1026V12.9286C58.8154 12.7444 58.9656 12.5976 59.1498 12.5976H64.1248V8.48939C64.1248 6.70825 63.3058 5.8245 61.6714 5.8245C60.9822 5.8245 60.4123 6.03605 59.9551 6.46598C59.8288 6.58541 59.6309 6.58541 59.5047 6.46598L59.4023 6.37044V6.37386Z" fill="white"/>
<path d="M72.3447 9.33231C72.3652 6.90967 71.6077 5.70518 70.0313 5.70518C68.3559 5.70518 67.5165 6.90626 67.5165 9.33231C67.5165 10.2536 67.7179 11.0145 68.1341 11.615C68.5914 12.277 69.2499 12.5977 70.1098 12.5977H72.3038C72.3243 11.2158 72.3243 10.1137 72.3447 9.33231ZM67.752 16.4569C67.7929 16.2795 67.9704 16.1669 68.1478 16.2078C68.5334 16.2999 68.9531 16.3443 69.4103 16.3443C70.2497 16.3443 70.9082 16.0645 71.3859 15.4844C71.8261 14.9624 72.0854 14.2834 72.1639 13.4406H70.1098C68.9906 13.4201 68.1137 13.0004 67.4756 12.1985C66.8955 11.4581 66.6191 10.5163 66.6191 9.33231C66.6191 8.02886 66.8785 7.00862 67.3971 6.22724C67.9772 5.3469 68.8541 4.90332 70.0313 4.90332C72.1673 4.90332 73.2251 6.38419 73.2251 9.32889C73.2251 10.5504 73.2046 11.6526 73.1637 12.5943H74.9141V13.4371H73.1057C73.0067 14.5597 72.645 15.4401 72.0274 16.0816C71.3893 16.7811 70.5295 17.1427 69.4342 17.1427C68.9462 17.1427 68.4446 17.0574 67.9499 16.8868C67.7929 16.8322 67.7042 16.6616 67.7452 16.4978L67.7554 16.4535L67.752 16.4569Z" fill="white"/>
<path d="M97.6695 13.4372H83.9595V12.5944H85.8498V6.59581C85.8498 6.41155 85.9999 6.26141 86.1842 6.26141H86.4538C86.638 6.26141 86.7881 6.41155 86.7881 6.59581V12.5944H90.272V5.66087C90.272 5.4732 90.4255 5.32307 90.6132 5.32648L90.8827 5.3333C91.0636 5.33672 91.2103 5.48685 91.2103 5.6677V12.5944H94.7351V4.69523C94.7351 4.51097 94.8852 4.36084 95.0695 4.36084H95.339C95.5233 4.36084 95.6734 4.51097 95.6734 4.69523V12.5944H97.673V13.4372H97.6695Z" fill="white"/>
<path d="M101.56 10.0933C101.56 12.0758 100.283 13.4372 98.2668 13.4372H96.9497V12.5944H98.1474C99.8023 12.5944 100.621 11.7141 100.621 9.92953V0.846353C100.621 0.662097 100.771 0.511963 100.956 0.511963H101.225C101.409 0.511963 101.56 0.662097 101.56 0.846353V10.0899V10.0933Z" fill="white"/>
<path d="M104.474 13.437H103.535V0.849527C103.535 0.66527 103.685 0.515137 103.87 0.515137H104.139C104.323 0.515137 104.474 0.66527 104.474 0.849527V13.437Z" fill="white"/>
<path d="M115.338 7.42842H109.599C109.414 7.42842 109.264 7.27828 109.264 7.09402V6.59925C109.264 6.415 109.414 6.26487 109.599 6.26487H111.202V5.86564C111.202 4.36429 112.141 3.18027 113.717 3.18027C114.236 3.18027 114.737 3.37818 115.205 3.77057C115.355 3.89682 115.365 4.12885 115.225 4.26534L114.84 4.64409C114.71 4.77034 114.509 4.76352 114.376 4.64409C114.133 4.42571 113.867 4.32335 113.581 4.32335C112.803 4.32335 112.424 4.78399 112.424 5.6848V6.26487H115.341C115.526 6.26487 115.676 6.415 115.676 6.59925V7.09402C115.676 7.27828 115.526 7.42842 115.341 7.42842M121.988 13.4372H121.493C120.156 13.4372 119.18 12.9766 118.562 12.0348C117.904 12.9766 116.846 13.4372 115.41 13.4372H110.039C107.882 13.4372 106.446 12.0553 106.446 9.99094V8.42476C106.446 8.17226 106.651 7.96412 106.903 7.96412L107.858 7.9573C108.114 7.9573 108.322 8.16203 108.322 8.41794V9.78963C108.322 11.0931 108.981 11.7516 110.298 11.7516H115.311C116.648 11.7516 117.307 11.0897 117.307 9.78963V0.846353C117.307 0.662097 117.457 0.511963 117.641 0.511963H118.829C119.013 0.511963 119.163 0.662097 119.163 0.846353V9.18909C119.163 10.8918 119.982 11.755 121.616 11.755H121.992V13.4372H121.988Z" fill="white"/>
<path d="M129.061 13.4371H128.205C127.028 13.4371 126.11 13.0754 125.431 12.3759C124.752 13.0754 123.814 13.4371 122.599 13.4371H121.848V11.7958H122.479C123.817 11.7958 124.476 11.1134 124.476 9.75194V5.3639C124.476 5.15575 124.663 4.9988 124.868 5.03633L126.076 5.25471C126.236 5.28201 126.349 5.42191 126.349 5.58228V9.81336C126.349 11.1373 127.007 11.7958 128.324 11.7958H129.058V13.4371H129.061Z" fill="white"/>
<path d="M136.138 13.4371H135.285C134.108 13.4371 133.19 13.0754 132.511 12.3759C131.832 13.0754 130.894 13.4371 129.675 13.4371H128.925V11.7958H129.556C130.894 11.7958 131.552 11.1134 131.552 9.75193V5.36048C131.552 5.15234 131.74 4.99538 131.941 5.03291L133.149 5.24105C133.309 5.26835 133.425 5.40825 133.425 5.56862V9.80993C133.425 11.1339 134.084 11.7924 135.401 11.7924H136.135V13.4337L136.138 13.4371Z" fill="white"/>
<path d="M79.3123 12.1541C80.0323 11.8948 81.1651 11.4137 81.5848 10.6903C82.2297 9.58133 82.4584 8.15163 81.967 6.94031C81.4313 5.62322 80.0391 5.20012 78.7152 5.12164C77.1183 5.04316 76.023 6.10434 76.023 7.72512C76.023 8.56792 76.2823 9.38684 76.8215 10.1887C77.4391 11.11 78.2784 11.7719 79.3157 12.1507M84.0825 13.4337H81.5678C81.1481 13.4337 80.0152 13.3142 79.2782 13.0549C78.78 13.3142 78.2 13.4337 77.5619 13.4337H74.9175V12.5909C77.5517 12.6523 77.9611 12.5909 78.1795 12.41C76.064 11.1066 75.0881 9.4039 75.228 7.32248C75.286 6.42167 75.6272 5.69829 76.2039 5.17964C76.8624 4.59957 77.7393 4.33684 78.8585 4.35731C79.9948 4.37778 81.2027 4.70877 82.0421 5.50721C83.4035 6.80042 83.3285 9.07975 82.5266 10.6493C82.1274 11.4307 81.5883 12.0313 80.8922 12.4134C81.073 12.5943 82.1308 12.6523 84.086 12.5943V13.4371L84.0825 13.4337Z" fill="white"/>
<path d="M45.8733 1.97564H45.7675C45.5901 1.97564 45.4331 1.83574 45.4331 1.64125V0.33439C45.4331 0.156958 45.5935 0 45.7675 0H45.8733C46.0507 0 46.2077 0.16037 46.2077 0.33439V1.64125C46.2077 1.83574 46.0473 1.97564 45.8733 1.97564Z" fill="white"/>
<path d="M48.1697 1.97564H48.0639C47.8864 1.97564 47.7295 1.83574 47.7295 1.64125V0.33439C47.7295 0.156958 47.8864 0 48.0639 0H48.1697C48.3471 0 48.504 0.16037 48.504 0.33439V1.64125C48.504 1.83574 48.3471 1.97564 48.1697 1.97564Z" fill="white"/>
<path d="M53.2878 17.6614H53.182C53.0046 17.6614 52.8477 17.5215 52.8477 17.327V16.0202C52.8477 15.8428 53.0046 15.6858 53.182 15.6858H53.2878C53.4653 15.6858 53.6222 15.8462 53.6222 16.0202V17.327C53.6222 17.5215 53.4653 17.6614 53.2878 17.6614Z" fill="white"/>
<path d="M55.5842 17.6614H55.4784C55.301 17.6614 55.144 17.5215 55.144 17.327V16.0202C55.144 15.8428 55.3044 15.6858 55.4784 15.6858H55.5842C55.7616 15.6858 55.9186 15.8462 55.9186 16.0202V17.327C55.9186 17.5215 55.7582 17.6614 55.5842 17.6614Z" fill="white"/>
<path d="M143.069 5.04319C142.369 4.36076 141.335 4.02295 139.998 4.02295C137.602 4.02295 136.128 5.28545 136.128 7.22697C136.128 8.30863 136.35 9.0866 136.766 9.56771C137.264 10.1478 138.145 10.4242 139.421 10.4242H140.878C141.069 10.4242 141.223 10.2706 141.223 10.0795V9.18214C141.223 8.99106 141.069 8.83751 140.878 8.83751H139.8C139.001 8.83751 138.503 8.75562 138.302 8.59524C138.104 8.4144 138.001 7.99129 138.001 7.2918C138.001 6.23061 138.653 5.70856 139.991 5.70856C141.407 5.70856 142.099 6.2272 142.099 7.2918V10.4378C142.099 11.0588 141.885 11.4615 141.468 11.6423C141.25 11.7208 140.776 11.7651 140.076 11.7651L136.005 11.8027V13.4405H140.315C141.513 13.4405 142.386 13.2426 142.946 12.8195C143.645 12.3179 144 11.4785 144 10.2979V7.2338C144 6.35346 143.683 5.63008 143.065 5.05001" fill="white"/>
<path d="M133.023 2.83884H132.04C131.829 2.83884 131.655 2.66482 131.655 2.45327V0.914385C131.655 0.702831 131.829 0.528809 132.04 0.528809H133.023C133.235 0.528809 133.409 0.702831 133.409 0.914385V2.45327C133.409 2.66482 133.235 2.83884 133.023 2.83884Z" fill="white"/>
<path d="M140.622 2.83884H139.639C139.428 2.83884 139.254 2.66482 139.254 2.45327V0.914385C139.254 0.702831 139.428 0.528809 139.639 0.528809H140.622C140.834 0.528809 141.008 0.702831 141.008 0.914385V2.45327C141.008 2.66482 140.834 2.83884 140.622 2.83884Z" fill="white"/>
<path d="M127.171 2.83884H126.188C125.977 2.83884 125.803 2.66482 125.803 2.45327V0.914385C125.803 0.702831 125.977 0.528809 126.188 0.528809H127.171C127.383 0.528809 127.557 0.702831 127.557 0.914385V2.45327C127.557 2.66482 127.383 2.83884 127.171 2.83884Z" fill="white"/>
<path d="M124.544 2.83884H123.561C123.35 2.83884 123.176 2.66482 123.176 2.45327V0.914385C123.176 0.702831 123.35 0.528809 123.561 0.528809H124.544C124.756 0.528809 124.93 0.702831 124.93 0.914385V2.45327C124.93 2.66482 124.756 2.83884 124.544 2.83884Z" fill="white"/>
<path d="M3.28591 17.0336L0.607354 15.4811C0.337793 15.3241 0 15.5186 0 15.8291V22.5101C0 22.8206 0.337793 23.0151 0.607354 22.8582L3.28591 21.3056C3.40875 21.234 3.48722 21.1009 3.48722 20.9576V17.3817C3.48722 17.2383 3.41216 17.1053 3.28591 17.0336Z" fill="white"/>
<path d="M3.7057 12.9833L6.78687 11.2055C6.90971 11.1339 6.9882 11.0008 6.9882 10.8575L7.00184 7.74219C7.00184 7.43168 6.66746 7.23377 6.3979 7.39073L0.61428 10.7312C0.344719 10.8882 0.344719 11.2738 0.61428 11.4307L3.30648 12.9833C3.43273 13.0549 3.58628 13.0549 3.70911 12.9833" fill="white"/>
<path d="M3.29961 25.3387L0.586936 26.9048C0.317375 27.0584 0.317375 27.4474 0.586936 27.6043L6.39103 31.0063C6.66059 31.1632 7.00179 30.9687 6.99838 30.6548L6.98474 27.4815C6.98474 27.3382 6.90627 27.2051 6.78343 27.1335L3.70224 25.3387C3.57599 25.267 3.42244 25.267 3.29619 25.3387" fill="white"/>
<path d="M10.4888 29.9724L10.499 33.0707C10.499 33.214 10.5775 33.347 10.7003 33.4187L17.3029 37.2369C17.4291 37.3086 17.5827 37.3086 17.7055 37.2369L24.3046 33.4187C24.4275 33.347 24.506 33.214 24.506 33.0707L24.5196 29.9724C24.5196 29.6619 24.1852 29.464 23.9156 29.621L17.7055 33.1969C17.5827 33.2686 17.4257 33.2686 17.3029 33.1969L11.0893 29.621C10.8198 29.464 10.482 29.6619 10.4854 29.9724" fill="white"/>
<path d="M24.5195 17.3748V20.9507C24.5195 21.094 24.441 21.2271 24.3182 21.2988L17.7123 25.1375C17.586 25.2091 17.4325 25.2091 17.3062 25.1375L10.7003 21.2988C10.5774 21.2271 10.4989 21.094 10.4989 20.9507V17.3748C10.4989 17.2315 10.5774 17.095 10.7003 17.0233L17.3062 13.2324C17.429 13.1608 17.5826 13.1608 17.7088 13.2324L24.3148 17.0233C24.441 17.095 24.5195 17.2281 24.5195 17.3748ZM7.01172 15.3548V22.9707C7.01172 23.114 7.09019 23.2471 7.21302 23.3188L17.3062 29.1502C17.4325 29.2218 17.586 29.2218 17.7088 29.1502L27.802 23.3188C27.9283 23.2471 28.0033 23.114 28.0033 22.9707V15.3548C28.0033 15.2115 27.9249 15.0784 27.802 15.0033L17.7088 9.19241C17.586 9.12076 17.4325 9.12076 17.3062 9.19241L7.21302 15.0033C7.08677 15.075 7.01172 15.2081 7.01172 15.3548Z" fill="white"/>
<path d="M31.7331 21.3088L34.4116 22.8613C34.6812 23.0183 35.019 22.8238 35.019 22.5133V15.8323C35.019 15.5218 34.6812 15.3273 34.4116 15.4843L31.7331 17.0368C31.6102 17.1084 31.5317 17.2415 31.5317 17.3848V20.9608C31.5317 21.1041 31.6102 21.2372 31.7331 21.3088Z" fill="white"/>
<path d="M31.709 12.9833L34.4012 11.4307C34.6708 11.2738 34.6708 10.8882 34.4012 10.7312L28.6176 7.39073C28.3481 7.23377 28.0103 7.43168 28.0103 7.74219L28.0239 10.8575C28.0239 11.0008 28.1024 11.1339 28.2252 11.2055L31.3064 12.9833C31.4327 13.0549 31.5862 13.0549 31.709 12.9833Z" fill="white"/>
<path d="M31.3064 25.3387L28.2252 27.1335C28.1024 27.2051 28.0239 27.3382 28.0239 27.4815L28.0103 30.6548C28.0103 30.9687 28.3481 31.1632 28.6176 31.0063L34.4217 27.6043C34.6879 27.4474 34.6879 27.0618 34.4217 26.9083L31.709 25.3421C31.5828 25.2704 31.4292 25.2704 31.303 25.3421" fill="white"/>
<path d="M24.5235 8.36658L24.5098 5.25127C24.5098 5.10796 24.4314 4.97489 24.3085 4.90323L17.706 1.10208C17.5831 1.03043 17.4262 1.03043 17.3033 1.10208L10.7008 4.90323C10.5746 4.97489 10.4995 5.10796 10.4995 5.25127L10.4858 8.36658C10.4858 8.67709 10.8202 8.87499 11.0898 8.71803L17.2999 5.13525C17.4262 5.0636 17.5797 5.0636 17.7026 5.13525L23.9127 8.71803C24.1823 8.87499 24.5201 8.67709 24.5167 8.36658" fill="white"/>
</svg>
