<svg width="188" height="135" viewBox="0 0 188 135" fill="none" xmlns="http://www.w3.org/2000/svg">
<g clip-path="url(#clip0_696_12424)">
<path d="M16.5415 107.892C15.0381 107.746 11.6675 107.676 9.55481 107.676C4.53616 107.676 1.92383 109.588 1.92383 114.392V134.028C1.92383 134.426 2.24818 134.748 2.64266 134.748H4.47041C4.86489 134.748 5.18486 134.421 5.18486 134.028V122.225H16.1864C16.5809 122.225 16.9053 121.899 16.9053 121.501V120.128C16.9053 119.731 16.5809 119.408 16.1864 119.408H5.18047V114.392C5.18047 111.65 5.78972 110.639 9.58549 110.639H16.502C16.7519 110.639 16.8965 110.458 16.8965 110.206V108.4C16.8965 108.184 16.7519 107.932 16.5371 107.897" fill="white"/>
<path d="M23.4899 107.688H21.6622C21.2677 107.688 20.9434 108.014 20.9434 108.412V111.3C20.9434 111.697 21.2677 112.024 21.6622 112.024H23.4899C23.8844 112.024 24.2044 111.697 24.2044 111.3V108.412C24.2044 108.014 23.8844 107.688 23.4899 107.688Z" fill="white"/>
<path d="M23.4194 114.895H21.7013C21.3068 114.895 20.9824 115.221 20.9824 115.619V134.028C20.9824 134.425 21.3068 134.747 21.7013 134.747H23.4194C23.8139 134.747 24.1383 134.425 24.1383 134.028V115.619C24.1383 115.221 23.8139 114.895 23.4194 114.895Z" fill="white"/>
<path d="M37.5371 114.639H34.9949C32.5579 114.639 28.7227 115.579 28.7227 121.134V134.023C28.7227 134.421 28.9725 134.743 29.367 134.743H31.2298C31.6243 134.743 31.8741 134.416 31.8741 134.023V121.134C31.8741 118.427 32.5535 117.381 34.9905 117.381H37.5327C39.9697 117.381 40.6491 118.427 40.6491 121.134V134.023C40.6491 134.421 40.8989 134.743 41.2934 134.743H43.1562C43.5507 134.743 43.8005 134.416 43.8005 134.023V121.134C43.8005 115.575 39.9653 114.639 37.5283 114.639" fill="white"/>
<path d="M56.6682 132.441H53.7666C51.7986 132.441 51.1148 132.079 51.1148 129.986V117.423H56.7033C57.0978 117.423 57.3827 117.136 57.3827 116.774V115.547C57.3827 115.149 57.0978 114.898 56.7033 114.898H51.1148V111.069C51.1148 110.707 50.865 110.385 50.5056 110.385H50.4354L48.6778 110.672C48.2833 110.742 47.959 110.999 47.959 111.356V129.981C47.959 133.88 49.8919 134.998 53.2625 134.998C54.5512 134.998 56.0195 134.892 56.7033 134.781C57.2424 134.711 57.4221 134.494 57.4221 134.168V132.94C57.4221 132.578 57.1723 132.432 56.6682 132.432" fill="white"/>
<path d="M90.2746 115.036C89.0911 114.82 87.4431 114.639 85.795 114.639C80.886 114.639 78.1641 118.105 78.1641 123.413V126.23C78.1641 131.537 80.921 135.004 85.795 135.004C87.4782 135.004 89.0911 134.823 90.2746 134.606C90.8488 134.496 90.9934 134.28 90.9934 133.811V132.513C90.9934 132.151 90.7085 131.97 90.3842 131.97H90.2395C88.6616 132.151 87.5527 132.222 85.795 132.222C82.8934 132.222 81.3155 130.275 81.3155 126.23V123.413C81.3155 119.333 82.9285 117.421 85.795 117.421C87.5527 117.421 88.6616 117.491 90.2395 117.672H90.3842C90.7041 117.672 90.9934 117.491 90.9934 117.129V115.831C90.9934 115.323 90.8488 115.146 90.2746 115.036Z" fill="white"/>
<path d="M101.561 114.64C100.162 114.64 98.659 114.856 97.4405 115.147V108.29C97.4405 107.892 97.1162 107.605 96.7611 107.605H94.9334C94.5389 107.605 94.2891 107.932 94.2891 108.29V134.029C94.2891 134.426 94.6134 134.749 95.0035 134.749H96.7217C97.1162 134.749 97.4405 134.422 97.4405 134.029V117.894C98.5494 117.567 100.127 117.351 101.561 117.351C104.787 117.351 106.22 118.905 106.22 121.899V134.029C106.22 134.426 106.544 134.749 106.939 134.749H108.657C109.051 134.749 109.376 134.422 109.376 134.029V121.899C109.376 117.603 106.939 114.644 101.565 114.644" fill="white"/>
<path d="M121.807 120.562L119.514 119.154C116.328 117.202 114.675 115.868 114.675 113.63C114.675 110.631 116.683 109.263 121.412 109.263C123.24 109.263 125.927 109.625 126.716 109.625C127.11 109.625 127.395 109.479 127.395 109.121V108.653C127.395 108.326 127.145 108.15 126.786 108.11C125.243 107.964 123.345 107.748 121.447 107.748C117.253 107.748 113.062 108.865 113.062 113.594C113.062 116.809 115.425 118.54 118.686 120.562L120.943 121.971C124.919 124.461 126.462 125.402 126.462 128.073C126.462 131.032 125.208 133.452 119.795 133.452C117.823 133.452 116.284 133.2 114.421 133.054H114.277C113.917 133.054 113.597 133.16 113.597 133.522V133.99C113.597 134.352 113.922 134.533 114.242 134.569C115.675 134.714 117.468 134.966 119.795 134.966C126.711 134.966 128.11 131.359 128.11 128.073C128.11 124.788 125.782 122.982 121.802 120.567" fill="white"/>
<path d="M143.335 133.091C142.046 133.307 140.074 133.559 138.356 133.559C134.341 133.559 132.908 130.852 132.908 126.193V123.955C132.908 119.296 134.341 116.589 138.356 116.589C140.074 116.589 142.046 116.841 143.335 117.057V133.086V133.091ZM144.374 115.874C142.796 115.547 140.398 115.189 138.356 115.189C133.412 115.189 131.334 118.762 131.334 123.959V126.198C131.334 131.395 133.412 134.972 138.356 134.972C140.398 134.972 142.8 134.61 144.374 134.287C144.803 134.181 144.913 134.036 144.913 133.603V116.563C144.913 116.13 144.803 115.984 144.374 115.878" fill="white"/>
<path d="M162.079 115.363H161.72C161.36 115.363 161.111 115.69 161.111 116.048V127.705C161.111 132.324 158.639 133.481 156.202 133.481H155.522C153.085 133.481 150.613 132.324 150.613 127.705V116.048C150.613 115.686 150.363 115.363 150.004 115.363H149.644C149.285 115.363 149.035 115.69 149.035 116.048V127.705C149.035 133.662 153.085 134.96 155.522 134.96H156.202C158.639 134.96 162.689 133.662 162.689 127.705V116.048C162.689 115.686 162.439 115.363 162.079 115.363Z" fill="white"/>
<path d="M178.27 133.088C176.982 133.305 175.009 133.556 173.291 133.556C169.276 133.556 167.843 130.849 167.843 126.191V123.811C167.843 119.046 169.346 116.591 173.291 116.591C174.689 116.591 176.912 116.772 178.27 117.059V133.088ZM179.239 107.928H178.88C178.52 107.928 178.27 108.25 178.27 108.612V115.726C176.837 115.399 174.689 115.183 173.291 115.183C168.632 115.183 166.27 118.106 166.27 123.811V126.191C166.27 131.388 168.347 134.96 173.291 134.96C175.334 134.96 177.736 134.598 179.309 134.276C179.739 134.166 179.848 134.024 179.848 133.592V108.612C179.848 108.25 179.599 107.928 179.239 107.928Z" fill="white"/>
<path d="M185.4 115.363H185.185C184.826 115.363 184.506 115.69 184.506 116.048V134.276C184.506 134.638 184.826 134.96 185.185 134.96H185.4C185.759 134.96 186.079 134.633 186.079 134.276V116.048C186.079 115.686 185.755 115.363 185.4 115.363Z" fill="white"/>
<path d="M185.402 107.748H185.187C184.828 107.748 184.508 108.075 184.508 108.432V111.104C184.508 111.501 184.828 111.788 185.187 111.788H185.402C185.761 111.788 186.081 111.501 186.081 111.104V108.432C186.081 108.07 185.757 107.748 185.402 107.748Z" fill="white"/>
<path d="M67.2767 114.639C62.1528 114.639 59.3477 118.428 59.3477 123.554V126.08C59.3477 133.013 63.6694 134.995 67.7895 134.995C70.1915 134.995 71.8614 134.779 73.9039 134.382C74.4781 134.271 74.5702 134.02 74.5702 133.551V132.324C74.5702 131.962 74.4387 131.6 74.1538 131.6H73.9741C72.326 132.169 69.9811 132.214 67.9035 132.214C64.6074 132.214 62.727 130.412 62.727 126.261V123.228C62.727 119.51 64.4934 117.417 67.5747 117.417C70.6561 117.417 72.3129 119.368 72.3129 123.228V123.647H64.8178C64.4452 123.647 64.1428 123.952 64.1428 124.327V125.237C64.1428 125.612 64.4452 125.917 64.8178 125.917H74.6184C75.0479 125.917 75.1312 125.502 75.1312 125.029V123.515C75.1312 118.388 72.5057 114.635 67.2723 114.635" fill="white"/>
<path d="M67.4609 34.5038L71.6687 32.0487C71.8659 31.9339 71.9843 31.7219 71.9843 31.4967V25.8403C71.9843 25.6106 71.8659 25.4031 71.6687 25.2883L67.4609 22.8332C67.0357 22.5859 66.5098 22.895 66.5098 23.3851V33.9518C66.5098 34.442 67.0401 34.7511 67.4609 34.5038Z" fill="white"/>
<path d="M67.464 16.4218L71.6893 18.8813C71.8866 18.9961 72.1276 18.9961 72.3249 18.8813L77.1594 16.0686C77.3567 15.9537 77.475 15.7462 77.475 15.5166L77.4969 10.5887C77.4969 10.0942 76.971 9.78507 76.5458 10.0323L67.464 15.3135C67.0432 15.5607 67.0432 16.1745 67.464 16.4218Z" fill="white"/>
<path d="M77.1603 41.2652L72.3214 38.4259C72.1241 38.3111 71.8831 38.3111 71.6858 38.4259L67.4254 40.9031C67.0047 41.146 67.0047 41.7598 67.4254 42.0071L76.5423 47.3897C76.9675 47.6414 77.4978 47.3323 77.4978 46.8378L77.4803 41.8216C77.4803 41.5964 77.3576 41.3844 77.1647 41.2741" fill="white"/>
<path d="M83.3141 51.2042L93.6845 57.2404C93.8817 57.3552 94.1228 57.3552 94.32 57.2404L104.682 51.2042C104.875 51.0894 104.997 50.8818 104.997 50.6522L105.019 45.7508C105.019 45.2563 104.493 44.9472 104.068 45.1945L94.3156 50.8509C94.1184 50.9657 93.8773 50.9657 93.6845 50.8509L83.9277 45.1945C83.5025 44.9472 82.9766 45.2607 82.9766 45.7508L82.9941 50.6522C82.9941 50.8818 83.1168 51.0894 83.3097 51.2042" fill="white"/>
<path d="M105.01 31.4793C105.01 31.7089 104.892 31.9164 104.694 32.0312L94.3195 38.1028C94.1222 38.2176 93.8812 38.2176 93.6839 38.1028L83.3091 32.0312C83.1119 31.9164 82.9936 31.7089 82.9936 31.4793V25.8272C82.9936 25.5976 83.1163 25.3857 83.3135 25.2709L93.6883 19.2744C93.8856 19.1596 94.1222 19.1596 94.3195 19.2744L104.694 25.2709C104.892 25.3857 105.014 25.5976 105.014 25.8272V31.4793H105.01ZM110.169 22.0739L94.3195 12.8849C94.1222 12.7701 93.8812 12.7701 93.6883 12.8849L77.839 22.0739C77.6418 22.1887 77.5234 22.4007 77.5234 22.6259V34.6718C77.5234 34.9014 77.6418 35.1089 77.839 35.2238L93.6883 44.4481C93.8856 44.5629 94.1266 44.5629 94.3239 44.4481L110.173 35.2238C110.37 35.1089 110.489 34.897 110.489 34.6718V22.6259C110.489 22.3963 110.366 22.1843 110.169 22.0739Z" fill="white"/>
<path d="M116.331 25.2844C116.134 25.3992 116.016 25.6111 116.016 25.8363V31.4928C116.016 31.7224 116.134 31.93 116.331 32.0448L120.539 34.4999C120.96 34.7471 121.49 34.438 121.49 33.9479V23.3812C121.49 22.8911 120.96 22.582 120.539 22.8293L116.331 25.2844Z" fill="white"/>
<path d="M110.826 16.0686L115.66 18.8813C115.858 18.9961 116.099 18.9961 116.296 18.8813L120.521 16.4218C120.942 16.1745 120.942 15.5607 120.521 15.3135L111.439 10.0323C111.014 9.78507 110.488 10.0942 110.488 10.5887L110.506 15.5166C110.506 15.7418 110.629 15.9537 110.821 16.0686" fill="white"/>
<path d="M120.556 40.9012L116.3 38.424C116.103 38.3092 115.862 38.3092 115.665 38.424L110.826 41.2633C110.633 41.3781 110.51 41.5856 110.51 41.8108L110.488 46.827C110.488 47.3216 111.019 47.6307 111.444 47.379L120.561 41.9963C120.981 41.749 120.977 41.1352 120.561 40.8924" fill="white"/>
<path d="M83.9238 12.1364L93.6762 6.47115C93.8734 6.35634 94.1145 6.35634 94.3117 6.47115L104.064 12.1364C104.489 12.3837 105.015 12.0746 105.015 11.5801L104.993 6.65219C104.993 6.42258 104.871 6.21504 104.678 6.10024L94.3117 0.0861054C94.1145 -0.0287018 93.8734 -0.0287018 93.6806 0.0861054L83.3145 6.10024C83.1173 6.21504 82.999 6.42258 82.9946 6.65219L82.9727 11.5801C82.9727 12.0746 83.4986 12.3837 83.9238 12.1364Z" fill="white"/>
<path d="M11.1462 85.8775C11.1462 90.5758 9.58584 92.9426 6.46507 92.9426C3.34431 92.9426 1.74447 90.5758 1.74447 85.8775C1.74447 81.1793 3.30486 78.8522 6.46507 78.8522H11.1462V85.8775ZM24.5278 77.4966H24.0238C23.6819 77.4966 23.4014 77.7748 23.4014 78.1236V87.9441C23.4014 91.2867 21.8761 92.9426 18.7947 92.9426H17.4973C14.416 92.9426 12.8907 91.2911 12.8907 87.9441V78.1148C12.8907 77.7748 12.6146 77.4966 12.2771 77.4966H6.20647C4.49706 77.4966 3.16022 77.9867 2.15649 78.9979C0.705679 80.4639 0 82.7557 0 85.8731C0 91.6223 2.08197 94.519 6.20647 94.519C8.99412 94.519 10.8131 93.4283 11.7423 91.2867C12.7461 93.4283 14.565 94.519 17.2387 94.519H19.0183C22.7702 94.519 25.1502 91.9623 25.1502 88.2443V78.1192C25.1502 77.7748 24.8741 77.4922 24.5278 77.4922" fill="white"/>
<path d="M29.9989 94.5212H41.0487V84.9746C41.0487 81.0667 38.524 78.6602 34.6976 78.6602C33.0232 78.6602 31.6119 79.2165 30.4591 80.3558C30.2049 80.6075 30.2093 81.0225 30.4679 81.2654L30.6563 81.442C30.893 81.6628 31.2612 81.6628 31.4979 81.442C32.3482 80.6384 33.4133 80.241 34.6976 80.241C37.7438 80.241 39.2691 81.8968 39.2691 85.2395V92.9448H30.0033C29.6614 92.9448 29.3852 93.223 29.3809 93.5674V93.8942C29.3809 94.243 29.657 94.5212 29.9989 94.5212Z" fill="white"/>
<path d="M62.9011 88.4326C61.8974 86.9313 61.4153 85.3902 61.4153 83.8094C61.4153 80.767 63.4578 78.7755 66.4295 78.9257C68.8972 79.0802 71.4876 79.8706 72.4826 82.339C73.3987 84.6086 72.9691 87.2933 71.7725 89.3687C70.9923 90.7199 68.8797 91.6251 67.5428 92.1108C65.6099 91.3955 64.0495 90.1547 62.8967 88.4282L62.9011 88.4326ZM54.4943 92.9366H50.4093C48.8095 92.9366 47.5866 92.336 46.7319 91.0952C45.9517 89.9692 45.5791 88.5386 45.5791 86.812C45.5791 82.2639 47.1395 80.0119 50.2603 80.0119C53.1969 80.0119 54.6083 82.2683 54.5688 86.812C54.5338 88.278 54.5338 90.3446 54.4943 92.9366ZM101.727 94.5129H102.84C106.592 94.5129 108.972 91.9563 108.972 88.2383V70.898C108.972 70.5536 108.696 70.2754 108.354 70.2754H107.85C107.508 70.2754 107.227 70.5536 107.227 70.898V87.938C107.227 91.2807 105.702 92.9366 102.621 92.9366H98.0054V78.1176C98.0054 77.7732 97.7292 77.4906 97.383 77.4906H96.8789C96.537 77.4906 96.2565 77.7688 96.2565 78.1176V92.9366H89.695V79.9457C89.695 79.6057 89.4277 79.3275 89.0858 79.3187L88.5817 79.3098C88.2355 79.301 87.9462 79.5836 87.9462 79.9369V92.941H81.4592V81.6899C81.4592 81.3455 81.183 81.0629 80.8368 81.0629H80.3327C79.9908 81.0629 79.7103 81.341 79.7103 81.6899V92.941H76.1907C72.693 93.047 70.7951 92.9321 70.4664 92.601C71.7681 91.8856 72.7719 90.7596 73.5126 89.2936C75.0029 86.3528 75.1475 82.0785 72.6097 79.6498C71.0449 78.1529 68.7964 77.5303 66.6794 77.495C64.5974 77.4597 62.9625 77.9454 61.7396 79.0361C60.6614 80.0119 60.0302 81.3675 59.9206 83.0587C59.662 86.9666 61.481 90.1591 65.417 92.6054C65.0094 92.9454 64.2467 93.0558 59.342 92.9454H56.0854C56.1599 91.1791 56.195 89.1126 56.195 86.8209C56.195 81.2969 54.227 78.515 50.2515 78.515C48.0599 78.515 46.425 79.3407 45.3468 80.9966C44.3825 82.4626 43.896 84.379 43.896 86.8209C43.896 89.0375 44.4176 90.8038 45.4914 92.1947C46.6793 93.6961 48.3142 94.4865 50.3961 94.5262H54.2226C54.0736 96.1026 53.5914 97.3831 52.7718 98.359C51.882 99.4497 50.6547 99.9751 49.0944 99.9751C48.244 99.9751 47.4638 99.8912 46.745 99.7234C46.4119 99.6439 46.0832 99.8559 46.0087 100.187L45.9911 100.267C45.921 100.571 46.0832 100.894 46.3768 100.995C47.2929 101.317 48.2309 101.476 49.1382 101.476C51.1807 101.476 52.7805 100.801 53.9684 99.485C55.1211 98.2839 55.7873 96.6281 55.9758 94.5262H64.2687C65.4565 94.5262 66.5347 94.301 67.4639 93.8109C68.8402 94.301 70.9485 94.5262 71.7287 94.5262H101.722L101.727 94.5129Z" fill="white"/>
<path d="M114.399 70.9063C114.399 70.5619 114.123 70.2793 113.776 70.2793H113.272C112.93 70.2793 112.654 70.5575 112.654 70.9063V94.5213H114.399V70.9063Z" fill="white"/>
<path d="M123.942 83.2428H134.628C134.97 83.2428 135.246 82.9646 135.246 82.6158V81.684C135.246 81.3396 134.97 81.057 134.628 81.057H129.193V79.9664C129.193 78.2752 129.899 77.4097 131.35 77.4097C131.884 77.4097 132.38 77.604 132.831 78.0146C133.081 78.2398 133.458 78.2531 133.699 78.0146L134.418 77.3037C134.681 77.0432 134.663 76.6105 134.383 76.372C133.515 75.6346 132.577 75.2637 131.613 75.2637C128.676 75.2637 126.932 77.4803 126.932 80.2975V81.0482H123.947C123.605 81.0482 123.324 81.3264 123.324 81.6752V82.6069C123.324 82.9513 123.6 83.2339 123.947 83.2339" fill="white"/>
<path d="M5.08529 73.9352H5.28253C5.61126 73.9352 5.90493 73.6703 5.90493 73.3082V70.8575C5.90493 70.5263 5.60688 70.2305 5.28253 70.2305H5.08529C4.75656 70.2305 4.46289 70.5263 4.46289 70.8575V73.3082C4.46289 73.6703 4.75656 73.9352 5.08529 73.9352Z" fill="white"/>
<path d="M9.35873 73.9352H9.55597C9.8847 73.9352 10.1828 73.6703 10.1828 73.3082V70.8575C10.1828 70.5263 9.8847 70.2305 9.55597 70.2305H9.35873C9.03 70.2305 8.73633 70.5263 8.73633 70.8575V73.3082C8.73633 73.6703 9.03 73.9352 9.35873 73.9352Z" fill="white"/>
<path d="M19.0892 97.8184H18.8919C18.5632 97.8184 18.2695 98.1142 18.2695 98.4454V100.896C18.2695 101.263 18.5632 101.528 18.8919 101.528H19.0892C19.4179 101.528 19.7116 101.263 19.7116 100.896V98.4454C19.7116 98.1142 19.4179 97.8184 19.0892 97.8184Z" fill="white"/>
<path d="M23.3587 101.528C23.6874 101.528 23.9811 101.263 23.9811 100.9V98.4498C23.9811 98.1186 23.6874 97.8184 23.3587 97.8184H23.1615C22.8327 97.8184 22.5391 98.1186 22.5391 98.4498V100.9C22.5391 101.263 22.8327 101.528 23.1615 101.528H23.3587Z" fill="white"/>
<path d="M186.26 78.7784C184.958 77.5023 183.03 76.862 180.54 76.862C176.083 76.862 173.334 79.2288 173.334 82.8762C173.334 84.9074 173.742 86.3645 174.522 87.2653C175.451 88.356 177.086 88.8726 179.466 88.8726H182.179C182.535 88.8726 182.824 88.5812 182.824 88.2235V86.5412C182.824 86.1835 182.535 85.8921 182.179 85.8921H180.172C178.686 85.8921 177.757 85.7375 177.384 85.4372C177.012 85.0972 176.828 84.3068 176.828 82.991C176.828 80.9995 178.042 80.0192 180.531 80.0192C183.17 80.0192 184.459 80.9951 184.459 82.9865V88.8859C184.459 90.0516 184.06 90.8067 183.28 91.1467C182.872 91.2968 181.991 91.3763 180.689 91.3763L173.111 91.4425H171.984C169.534 91.4425 168.307 90.2017 168.307 87.7201V79.7631C168.307 79.4584 168.092 79.1979 167.794 79.1493L165.541 78.7564C165.16 78.6901 164.814 78.986 164.814 79.3701V87.6097C164.814 90.1664 163.586 91.4425 161.097 91.4425H158.809C156.359 91.4425 155.131 90.2017 155.131 87.7201V79.7808C155.131 79.4805 154.917 79.22 154.619 79.167L152.366 78.7608C151.984 78.6901 151.634 78.986 151.634 79.3745V87.6097C151.634 90.1664 150.406 91.4425 147.917 91.4425H146.996V91.3675H146.299C143.253 91.3675 141.728 89.7513 141.728 86.5588V70.9141C141.728 70.5697 141.452 70.2871 141.105 70.2871H138.892C138.55 70.2871 138.27 70.5653 138.27 70.9141V87.6892C138.27 90.1311 137.042 91.3719 134.553 91.3719H125.221C122.771 91.3719 121.544 90.1311 121.544 87.6892V85.1149C121.544 84.6336 121.154 84.2494 120.68 84.2494L118.905 84.2627C118.432 84.2627 118.055 84.6513 118.055 85.1281V88.0646C118.055 91.9371 120.728 94.5291 124.743 94.5291H134.741C137.415 94.5291 139.387 93.6636 140.61 91.8974C141.763 93.6636 143.582 94.5291 146.071 94.5291H148.136C150.402 94.5291 152.151 93.8535 153.413 92.5376C154.676 93.8535 156.385 94.5291 158.576 94.5291H161.312C163.578 94.5291 165.326 93.8535 166.589 92.5376C167.851 93.8535 169.561 94.5291 171.752 94.5291H173.343V94.5203H181.128C183.359 94.5203 184.985 94.1493 186.028 93.3589C187.33 92.4184 187.991 90.8464 187.991 88.6254V82.8762C187.991 81.2247 187.4 79.8691 186.251 78.7784" fill="white"/>
<path d="M165.725 74.6389H167.552C167.947 74.6389 168.271 74.3122 168.271 73.9147V71.0269C168.271 70.6295 167.947 70.3027 167.552 70.3027H165.725C165.33 70.3027 165.006 70.6295 165.006 71.0269V73.9147C165.006 74.3122 165.33 74.6389 165.725 74.6389Z" fill="white"/>
<path d="M181.93 74.5979H183.758C184.152 74.5979 184.476 74.2711 184.476 73.8737V70.9859C184.476 70.5885 184.152 70.2617 183.758 70.2617H181.93C181.535 70.2617 181.211 70.5885 181.211 70.9859V73.8737C181.211 74.2711 181.535 74.5979 181.93 74.5979Z" fill="white"/>
<path d="M154.832 74.6389H156.66C157.054 74.6389 157.374 74.3122 157.374 73.9147V71.0269C157.374 70.6295 157.05 70.3027 156.66 70.3027H154.832C154.438 70.3027 154.113 70.6295 154.113 71.0269V73.9147C154.113 74.3122 154.438 74.6389 154.832 74.6389Z" fill="white"/>
<path d="M149.941 74.637H151.769C152.164 74.637 152.488 74.3102 152.488 73.9128V71.0249C152.488 70.6275 152.164 70.3008 151.769 70.3008H149.941C149.547 70.3008 149.223 70.6275 149.223 71.0249V73.9128C149.223 74.3102 149.547 74.637 149.941 74.637Z" fill="white"/>
</g>
<defs>
<clipPath id="clip0_696_12424">
<rect width="188" height="135" fill="white"/>
</clipPath>
</defs>
</svg>
