<svg width="144" height="39" viewBox="0 0 144 39" fill="none" xmlns="http://www.w3.org/2000/svg">
<path d="M51.7287 31.5293H45.8222V37.8213C45.8222 38.0329 45.6482 38.2069 45.4366 38.2069H44.4539C44.2424 38.2069 44.0684 38.0329 44.0684 37.8213V27.3528C44.0684 24.7937 45.4742 23.7734 48.1664 23.7734C49.3026 23.7734 51.1111 23.811 51.9197 23.8894C52.0358 23.9099 52.1108 24.043 52.1108 24.159V25.1212C52.1108 25.2577 52.0358 25.3533 51.8993 25.3533H48.1868C46.1464 25.3533 45.8188 25.8924 45.8188 27.3528V30.0279H51.7253C51.9368 30.0279 52.1108 30.2019 52.1108 30.4135V31.1437C52.1108 31.3553 51.9368 31.5293 51.7253 31.5293" fill="white"/>
<path d="M55.614 38.2061H54.6893C54.4777 38.2061 54.3037 38.0321 54.3037 37.8206V28.0072C54.3037 27.7956 54.4777 27.6216 54.6893 27.6216H55.614C55.8255 27.6216 55.9995 27.7956 55.9995 28.0072V37.8206C55.9995 38.0321 55.8255 38.2061 55.614 38.2061ZM55.6515 25.9292H54.6688C54.4572 25.9292 54.2832 25.7552 54.2832 25.5436V24.0047C54.2832 23.7932 54.4572 23.6191 54.6688 23.6191H55.6515C55.863 23.6191 56.0371 23.7932 56.0371 24.0047V25.5436C56.0371 25.7552 55.863 25.9292 55.6515 25.9292Z" fill="white"/>
<path d="M66.2163 38.2059H65.2165C65.005 38.2059 64.8719 38.0319 64.8719 37.8203V30.9516C64.8719 29.5083 64.5068 28.9521 63.1965 28.9521H61.8282C60.5214 28.9521 60.1529 29.5117 60.1529 30.9516V37.8203C60.1529 38.0319 60.0164 38.2059 59.8048 38.2059H58.8051C58.5935 38.2059 58.457 38.0319 58.457 37.8203V30.9516C58.457 27.9899 60.518 27.4883 61.8248 27.4883H63.1931C64.5 27.4883 66.5609 27.9899 66.5609 30.9516V37.8203C66.5609 38.0319 66.4278 38.2059 66.2163 38.2059Z" fill="white"/>
<path d="M73.492 38.222C73.1269 38.28 72.3387 38.338 71.646 38.338C69.8376 38.338 68.7969 37.7409 68.7969 35.6629V25.7335C68.7969 25.5424 68.9709 25.4059 69.1825 25.3684L70.1242 25.2148H70.1617C70.3528 25.2148 70.4893 25.3889 70.4893 25.5799V27.6204H73.492C73.7036 27.6204 73.8571 27.7569 73.8571 27.9685V28.6236C73.8571 28.8147 73.7036 28.9716 73.492 28.9716H70.4893V35.6697C70.4893 36.7855 70.8544 36.98 71.9122 36.98H73.4715C73.7411 36.98 73.8742 37.0585 73.8742 37.2495V37.9047C73.8742 38.0787 73.7786 38.1947 73.4886 38.2323" fill="white"/>
<path d="M91.5212 38.1274C90.8865 38.2434 90.0198 38.339 89.1156 38.339C86.4985 38.339 85.0176 36.493 85.0176 33.6643V32.1629C85.0176 29.3343 86.4814 27.4883 89.1156 27.4883C89.9993 27.4883 90.8865 27.5838 91.5212 27.6998C91.8283 27.7579 91.9067 27.8534 91.9067 28.1229V28.8156C91.9067 29.0067 91.7532 29.1057 91.5792 29.1057H91.5007C90.6545 29.0101 90.0573 28.9726 89.1156 28.9726C87.5767 28.9726 86.71 29.9928 86.71 32.1664V33.6677C86.71 35.8242 87.5562 36.8615 89.1156 36.8615C90.0573 36.8615 90.6545 36.824 91.5007 36.725H91.5792C91.7532 36.725 91.9067 36.8205 91.9067 37.015V37.7077C91.9067 37.9568 91.8317 38.0728 91.5212 38.1308" fill="white"/>
<path d="M101.392 38.2054H100.467C100.255 38.2054 100.081 38.0313 100.081 37.8198V31.3537C100.081 29.7568 99.3102 28.9277 97.5803 28.9277C96.8091 28.9277 95.9629 29.0437 95.3658 29.2177V37.8198C95.3658 38.0313 95.1918 38.2054 94.9802 38.2054H94.0555C93.8439 38.2054 93.6699 38.0313 93.6699 37.8198V24.0995C93.6699 23.9084 93.803 23.7344 94.0146 23.7344H94.9973C95.1883 23.7344 95.3624 23.8879 95.3624 24.0995V27.7573C96.0175 27.6038 96.8262 27.4878 97.5769 27.4878C100.464 27.4878 101.77 29.0642 101.77 31.3571V37.8232C101.77 38.0347 101.596 38.2088 101.385 38.2088" fill="white"/>
<path d="M107.373 38.3215C106.121 38.3215 105.159 38.185 104.391 38.1099C104.217 38.0895 104.043 37.9939 104.043 37.8029V37.5538C104.043 37.3627 104.217 37.3047 104.408 37.3047H104.487C105.486 37.3832 106.315 37.5162 107.373 37.5162C110.28 37.5162 110.953 36.2264 110.953 34.65C110.953 33.2271 110.127 32.7256 107.991 31.3982L106.78 30.6476C105.029 29.5693 103.76 28.648 103.76 26.9351C103.76 24.4135 106.012 23.8164 108.264 23.8164C109.284 23.8164 110.304 23.9324 111.13 24.0075C111.321 24.028 111.458 24.1235 111.458 24.2975V24.5466C111.458 24.7377 111.304 24.8162 111.092 24.8162C110.669 24.8162 109.226 24.6251 108.243 24.6251C105.701 24.6251 104.626 25.3553 104.626 26.9522C104.626 28.1464 105.51 28.8562 107.223 29.8969L108.455 30.6476C110.591 31.9373 111.84 32.8791 111.84 34.65C111.84 36.4209 111.089 38.3249 107.377 38.3249" fill="white"/>
<path d="M120.016 28.7752C119.324 28.6591 118.266 28.5261 117.341 28.5261C115.185 28.5261 114.417 29.9694 114.417 32.4535V33.6477C114.417 36.1318 115.188 37.5751 117.341 37.5751C118.266 37.5751 119.324 37.4421 120.016 37.326V28.782V28.7752ZM120.576 37.9539C119.73 38.1279 118.44 38.319 117.345 38.319C114.69 38.319 113.574 36.415 113.574 33.6443V32.4501C113.574 29.6794 114.69 27.7754 117.345 27.7754C118.443 27.7754 119.73 27.9665 120.576 28.1405C120.808 28.1985 120.866 28.277 120.866 28.5056V37.5888C120.866 37.8208 120.808 37.8959 120.576 37.9539Z" fill="white"/>
<path d="M126.925 38.3225H126.56C125.253 38.3225 123.076 37.6299 123.076 34.4531V28.2362C123.076 28.0451 123.213 27.8711 123.404 27.8711H123.595C123.786 27.8711 123.922 28.0451 123.922 28.2362V34.4531C123.922 36.9167 125.25 37.5309 126.56 37.5309H126.925C128.235 37.5309 129.563 36.9167 129.563 34.4531V28.2362C129.563 28.0451 129.696 27.8711 129.89 27.8711H130.081C130.272 27.8711 130.409 28.0451 130.409 28.2362V34.4531C130.409 37.6265 128.235 38.3225 126.925 38.3225Z" fill="white"/>
<path d="M138.776 28.774C138.046 28.6204 136.852 28.5249 136.101 28.5249C133.985 28.5249 133.177 29.8351 133.177 32.3738V33.6431C133.177 36.1272 133.948 37.5705 136.101 37.5705C137.026 37.5705 138.083 37.4374 138.776 37.3214V28.7774V28.774ZM139.336 37.9527C138.49 38.1267 137.2 38.3178 136.104 38.3178C133.45 38.3178 132.334 36.4138 132.334 33.6431V32.3738C132.334 29.3335 133.603 27.7742 136.104 27.7742C136.855 27.7742 138.008 27.8902 138.78 28.0642V24.2733C138.78 24.0788 138.916 23.9082 139.107 23.9082H139.298C139.489 23.9082 139.626 24.0822 139.626 24.2733V37.591C139.626 37.823 139.568 37.8981 139.336 37.9561" fill="white"/>
<path d="M142.604 38.321H142.488C142.294 38.321 142.123 38.147 142.123 37.9559V28.2381C142.123 28.047 142.297 27.873 142.488 27.873H142.604C142.795 27.873 142.969 28.047 142.969 28.2381V37.9559C142.969 38.147 142.795 38.321 142.604 38.321ZM142.604 25.9656H142.488C142.294 25.9656 142.123 25.812 142.123 25.6005V24.1776C142.123 23.9865 142.297 23.8125 142.488 23.8125H142.604C142.795 23.8125 142.969 23.9865 142.969 24.1776V25.6005C142.969 25.812 142.795 25.9656 142.604 25.9656Z" fill="white"/>
<path d="M79.1666 27.4883C76.413 27.4883 74.9082 29.5083 74.9082 32.2414V33.5892C74.9082 37.2846 77.2285 38.3424 79.443 38.3424C80.7328 38.3424 81.6302 38.2264 82.7255 38.0148C83.0326 37.9568 83.0838 37.8237 83.0838 37.5712V36.9161C83.0838 36.725 83.0155 36.5305 82.862 36.5305H82.7664C81.8827 36.8342 80.6236 36.8581 79.5044 36.8581C77.7335 36.8581 76.7235 35.8959 76.7235 33.6848V32.0674C76.7235 30.0849 77.6721 28.9692 79.327 28.9692C80.9819 28.9692 81.8724 30.0065 81.8724 32.0674V32.2892H77.8495C77.6482 32.2892 77.4844 32.453 77.4844 32.6543V33.1388C77.4844 33.3401 77.6482 33.5039 77.8495 33.5039H83.1111C83.3431 33.5039 83.3874 33.2821 83.3874 33.033V32.2244C83.3874 29.4912 81.9782 27.4917 79.1666 27.4917" fill="white"/>
<path d="M49.0235 8.8298V5.08325H46.5087C44.8129 5.08325 43.9735 6.32527 43.9735 8.8298C43.9735 11.3343 44.8129 12.5968 46.5087 12.5968C48.2046 12.5968 49.0235 11.3343 49.0235 8.8298ZM52.8315 13.4362H52.2957C50.8592 13.4362 49.8799 12.8562 49.3408 11.7131C48.8426 12.8562 47.8634 13.4362 46.3688 13.4362C44.1543 13.4362 43.0352 11.8939 43.0352 8.8298C43.0352 7.16808 43.4139 5.94653 44.1919 5.16514C44.731 4.62261 45.4476 4.36328 46.3654 4.36328H49.6275C49.8083 4.36328 49.9584 4.51 49.9584 4.69426V9.93534C49.9584 11.7165 50.7773 12.6002 52.4322 12.6002H52.811L52.8315 13.443V13.4362Z" fill="white"/>
<path d="M56.5431 10.0938C56.5431 12.0762 55.2669 13.4377 53.2503 13.4377H52.2949V12.5949H53.1309C54.7858 12.5949 55.6047 11.7145 55.6047 9.92997V4.69572C55.6047 4.51146 55.7549 4.36133 55.9391 4.36133H56.2087C56.3929 4.36133 56.5431 4.51146 56.5431 4.69572V10.0938Z" fill="white"/>
<path d="M59.4013 6.37313C59.2614 6.24347 59.258 6.02167 59.3945 5.8886C60.0121 5.28123 60.773 4.98438 61.6704 4.98438C63.7246 4.98438 65.0826 6.26734 65.0826 8.34876V13.4363H59.1488C58.9646 13.4363 58.8145 13.2862 58.8145 13.1019V12.9279C58.8145 12.7436 58.9646 12.5969 59.1488 12.5969H64.1238V8.48866C64.1238 6.70751 63.3049 5.82376 61.6704 5.82376C60.9812 5.82376 60.4113 6.03532 59.9541 6.46525C59.8279 6.58468 59.6299 6.58468 59.5037 6.46525L59.4013 6.36971V6.37313Z" fill="white"/>
<path d="M72.3447 9.33328C72.3652 6.91065 71.6077 5.70615 70.0313 5.70615C68.3559 5.70615 67.5165 6.90723 67.5165 9.33328C67.5165 10.2546 67.7179 11.0155 68.1341 11.616C68.5914 12.278 69.2499 12.5987 70.1098 12.5987H72.3038C72.3243 11.2168 72.3243 10.1147 72.3447 9.33328ZM67.752 16.4579C67.7929 16.2804 67.9704 16.1678 68.1478 16.2088C68.5334 16.3009 68.9531 16.3453 69.4103 16.3453C70.2497 16.3453 70.9082 16.0655 71.3859 15.4854C71.8261 14.9633 72.0854 14.2843 72.1639 13.4415H70.1098C68.9906 13.4211 68.1137 13.0014 67.4756 12.1995C66.8955 11.4591 66.6191 10.5173 66.6191 9.33328C66.6191 8.02984 66.8785 7.0096 67.3971 6.22821C67.9772 5.34787 68.8541 4.9043 70.0313 4.9043C72.1673 4.9043 73.2251 6.38517 73.2251 9.32987C73.2251 10.5514 73.2046 11.6536 73.1637 12.5953H74.9141V13.4381H73.1057C73.0067 14.5607 72.645 15.4411 72.0274 16.0825C71.3893 16.782 70.5295 17.1437 69.4342 17.1437C68.9462 17.1437 68.4446 17.0584 67.9499 16.8878C67.7929 16.8332 67.7042 16.6626 67.7452 16.4988L67.7554 16.4545L67.752 16.4579Z" fill="white"/>
<path d="M97.6691 13.4377H83.959V12.5949H85.8493V6.5963C85.8493 6.41204 85.9994 6.2619 86.1837 6.2619H86.4533C86.6375 6.2619 86.7877 6.41204 86.7877 6.5963V12.5949H90.2715V5.66136C90.2715 5.47369 90.425 5.32356 90.6127 5.32697L90.8823 5.33379C91.0631 5.3372 91.2098 5.48734 91.2098 5.66819V12.5949H94.7346V4.69572C94.7346 4.51146 94.8847 4.36133 95.069 4.36133H95.3385C95.5228 4.36133 95.6729 4.51146 95.6729 4.69572V12.5949H97.6725V13.4377H97.6691Z" fill="white"/>
<path d="M101.559 10.0931C101.559 12.0755 100.283 13.437 98.2663 13.437H96.9492V12.5942H98.1469C99.8018 12.5942 100.621 11.7138 100.621 9.92928V0.846109C100.621 0.661852 100.771 0.511719 100.955 0.511719H101.225C101.409 0.511719 101.559 0.661852 101.559 0.846109V10.0897V10.0931Z" fill="white"/>
<path d="M104.474 13.4375H103.535V0.850015C103.535 0.665759 103.685 0.515625 103.87 0.515625H104.139C104.323 0.515625 104.474 0.665759 104.474 0.850015V13.4375Z" fill="white"/>
<path d="M115.337 7.42817H109.598C109.414 7.42817 109.264 7.27803 109.264 7.09378V6.59901C109.264 6.41475 109.414 6.26462 109.598 6.26462H111.202V5.8654C111.202 4.36405 112.14 3.18003 113.717 3.18003C114.235 3.18003 114.737 3.37793 115.204 3.77033C115.354 3.89658 115.365 4.12861 115.225 4.2651L114.839 4.64385C114.71 4.7701 114.508 4.76327 114.375 4.64385C114.133 4.42547 113.867 4.3231 113.58 4.3231C112.802 4.3231 112.423 4.78374 112.423 5.68455V6.26462H115.341C115.525 6.26462 115.675 6.41475 115.675 6.59901V7.09378C115.675 7.27803 115.525 7.42817 115.341 7.42817M121.988 13.437H121.493C120.155 13.437 119.18 12.9763 118.562 12.0346C117.903 12.9763 116.846 13.437 115.409 13.437H110.038C107.882 13.437 106.445 12.0551 106.445 9.9907V8.42452C106.445 8.17202 106.65 7.96387 106.903 7.96387L107.858 7.95705C108.114 7.95705 108.322 8.16179 108.322 8.4177V9.78938C108.322 11.0928 108.981 11.7514 110.298 11.7514H115.31C116.648 11.7514 117.306 11.0894 117.306 9.78938V0.846109C117.306 0.661852 117.456 0.511719 117.641 0.511719H118.828C119.012 0.511719 119.162 0.661852 119.162 0.846109V9.18885C119.162 10.8915 119.981 11.7548 121.616 11.7548H121.991V13.437H121.988Z" fill="white"/>
<path d="M129.061 13.4376H128.205C127.027 13.4376 126.109 13.0759 125.43 12.3764C124.751 13.0759 123.813 13.4376 122.598 13.4376H121.848V11.7963H122.479C123.816 11.7963 124.475 11.1139 124.475 9.75243V5.36438C124.475 5.15624 124.663 4.99928 124.867 5.03682L126.075 5.2552C126.236 5.28249 126.348 5.4224 126.348 5.58277V9.81385C126.348 11.1378 127.007 11.7963 128.324 11.7963H129.058V13.4376H129.061Z" fill="white"/>
<path d="M136.139 13.4371H135.286C134.109 13.4371 133.191 13.0754 132.512 12.3759C131.833 13.0754 130.895 13.4371 129.676 13.4371H128.926V11.7958H129.557C130.895 11.7958 131.553 11.1134 131.553 9.75193V5.36048C131.553 5.15234 131.741 4.99538 131.942 5.03291L133.15 5.24105C133.31 5.26835 133.426 5.40825 133.426 5.56862V9.80993C133.426 11.1339 134.085 11.7924 135.402 11.7924H136.136V13.4337L136.139 13.4371Z" fill="white"/>
<path d="M79.3128 12.1534C80.0328 11.894 81.1656 11.4129 81.5853 10.6896C82.2302 9.5806 82.4588 8.1509 81.9675 6.93958C81.4318 5.62249 80.0396 5.19938 78.7157 5.1209C77.1188 5.04242 76.0235 6.10361 76.0235 7.72438C76.0235 8.56719 76.2828 9.38611 76.8219 10.188C77.4395 11.1093 78.2789 11.7712 79.3162 12.15M84.083 13.4329H81.5683C81.1486 13.4329 80.0157 13.3135 79.2787 13.0542C78.7805 13.3135 78.2005 13.4329 77.5624 13.4329H74.918V12.5901C77.5522 12.6515 77.9616 12.5901 78.18 12.4093C76.0645 11.1058 75.0886 9.40317 75.2285 7.32175C75.2865 6.42094 75.6277 5.69756 76.2043 5.17891C76.8629 4.59884 77.7398 4.3361 78.859 4.35658C79.9953 4.37705 81.2032 4.70803 82.0426 5.50648C83.404 6.79969 83.3289 9.07902 82.5271 10.6486C82.1279 11.43 81.5887 12.0305 80.8927 12.4127C81.0735 12.5935 82.1313 12.6515 84.0864 12.5935V13.4363L84.083 13.4329Z" fill="white"/>
<path d="M45.8738 1.97564H45.768C45.5906 1.97564 45.4336 1.83574 45.4336 1.64125V0.33439C45.4336 0.156958 45.594 0 45.768 0H45.8738C46.0512 0 46.2082 0.16037 46.2082 0.33439V1.64125C46.2082 1.83574 46.0478 1.97564 45.8738 1.97564Z" fill="white"/>
<path d="M48.1687 1.97564H48.0629C47.8855 1.97564 47.7285 1.83574 47.7285 1.64125V0.33439C47.7285 0.156958 47.8855 0 48.0629 0H48.1687C48.3461 0 48.5031 0.16037 48.5031 0.33439V1.64125C48.5031 1.83574 48.3461 1.97564 48.1687 1.97564Z" fill="white"/>
<path d="M53.2878 17.6612H53.182C53.0046 17.6612 52.8477 17.5213 52.8477 17.3268V16.0199C52.8477 15.8425 53.0046 15.6855 53.182 15.6855H53.2878C53.4653 15.6855 53.6222 15.8459 53.6222 16.0199V17.3268C53.6222 17.5213 53.4653 17.6612 53.2878 17.6612Z" fill="white"/>
<path d="M55.5847 17.6612H55.4789C55.3015 17.6612 55.1445 17.5213 55.1445 17.3268V16.0199C55.1445 15.8425 55.3049 15.6855 55.4789 15.6855H55.5847C55.7621 15.6855 55.9191 15.8459 55.9191 16.0199V17.3268C55.9191 17.5213 55.7587 17.6612 55.5847 17.6612Z" fill="white"/>
<path d="M143.069 5.04368C142.37 4.36124 141.336 4.02344 139.998 4.02344C137.603 4.02344 136.129 5.28594 136.129 7.22746C136.129 8.30912 136.35 9.08709 136.767 9.5682C137.265 10.1483 138.145 10.4247 139.421 10.4247H140.878C141.069 10.4247 141.223 10.2711 141.223 10.08V9.18263C141.223 8.99154 141.069 8.83799 140.878 8.83799H139.8C139.002 8.83799 138.504 8.7561 138.302 8.59573C138.104 8.41489 138.002 7.99178 138.002 7.29228C138.002 6.2311 138.654 5.70905 139.991 5.70905C141.407 5.70905 142.1 6.22769 142.1 7.29228V10.4383C142.1 11.0593 141.885 11.4619 141.469 11.6428C141.25 11.7213 140.776 11.7656 140.077 11.7656L136.006 11.8032V13.441H140.315C141.513 13.441 142.387 13.2431 142.946 12.82C143.646 12.3184 144.001 11.479 144.001 10.2984V7.23428C144.001 6.35395 143.683 5.63056 143.066 5.0505" fill="white"/>
<path d="M133.023 2.83933H132.04C131.828 2.83933 131.654 2.66531 131.654 2.45376V0.914873C131.654 0.703319 131.828 0.529297 132.04 0.529297H133.023C133.234 0.529297 133.408 0.703319 133.408 0.914873V2.45376C133.408 2.66531 133.234 2.83933 133.023 2.83933Z" fill="white"/>
<path d="M140.622 2.83933H139.639C139.428 2.83933 139.254 2.66531 139.254 2.45376V0.914873C139.254 0.703319 139.428 0.529297 139.639 0.529297H140.622C140.834 0.529297 141.008 0.703319 141.008 0.914873V2.45376C141.008 2.66531 140.834 2.83933 140.622 2.83933Z" fill="white"/>
<path d="M127.171 2.83933H126.188C125.977 2.83933 125.803 2.66531 125.803 2.45376V0.914873C125.803 0.703319 125.977 0.529297 126.188 0.529297H127.171C127.383 0.529297 127.557 0.703319 127.557 0.914873V2.45376C127.557 2.66531 127.383 2.83933 127.171 2.83933Z" fill="white"/>
<path d="M124.544 2.83933H123.561C123.35 2.83933 123.176 2.66531 123.176 2.45376V0.914873C123.176 0.703319 123.35 0.529297 123.561 0.529297H124.544C124.756 0.529297 124.93 0.703319 124.93 0.914873V2.45376C124.93 2.66531 124.756 2.83933 124.544 2.83933Z" fill="white"/>
<path d="M3.28591 17.0339L0.607354 15.4813C0.337793 15.3244 0 15.5189 0 15.8294V22.5104C0 22.8209 0.337793 23.0154 0.607354 22.8584L3.28591 21.3059C3.40875 21.2342 3.48722 21.1012 3.48722 20.9579V17.3819C3.48722 17.2386 3.41216 17.1055 3.28591 17.0339Z" fill="white"/>
<path d="M3.7057 12.9835L6.78687 11.2058C6.90971 11.1341 6.9882 11.001 6.9882 10.8577L7.00184 7.74243C7.00184 7.43192 6.66746 7.23402 6.3979 7.39098L0.61428 10.7315C0.344719 10.8884 0.344719 11.274 0.61428 11.431L3.30648 12.9835C3.43273 13.0552 3.58628 13.0552 3.70911 12.9835" fill="white"/>
<path d="M3.29961 25.3389L0.586936 26.9051C0.317375 27.0586 0.317375 27.4476 0.586936 27.6046L6.39103 31.0065C6.66059 31.1635 7.00179 30.969 6.99838 30.655L6.98474 27.4817C6.98474 27.3384 6.90627 27.2054 6.78343 27.1337L3.70224 25.3389C3.57599 25.2672 3.42244 25.2672 3.29619 25.3389" fill="white"/>
<path d="M10.4878 29.9729L10.498 33.0711C10.498 33.2145 10.5765 33.3475 10.6994 33.4192L17.3019 37.2374C17.4281 37.3091 17.5817 37.3091 17.7045 37.2374L24.3037 33.4192C24.4265 33.3475 24.505 33.2145 24.505 33.0711L24.5186 29.9729C24.5186 29.6624 24.1842 29.4645 23.9147 29.6214L17.7045 33.1974C17.5817 33.2691 17.4247 33.2691 17.3019 33.1974L11.0884 29.6214C10.8188 29.4645 10.481 29.6624 10.4844 29.9729" fill="white"/>
<path d="M24.5195 17.3748V20.9507C24.5195 21.094 24.441 21.2271 24.3182 21.2988L17.7123 25.1375C17.586 25.2091 17.4325 25.2091 17.3062 25.1375L10.7003 21.2988C10.5774 21.2271 10.4989 21.094 10.4989 20.9507V17.3748C10.4989 17.2315 10.5774 17.095 10.7003 17.0233L17.3062 13.2324C17.429 13.1608 17.5826 13.1608 17.7088 13.2324L24.3148 17.0233C24.441 17.095 24.5195 17.2281 24.5195 17.3748ZM7.01172 15.3548V22.9707C7.01172 23.114 7.09019 23.2471 7.21302 23.3188L17.3062 29.1502C17.4325 29.2218 17.586 29.2218 17.7088 29.1502L27.802 23.3188C27.9283 23.2471 28.0033 23.114 28.0033 22.9707V15.3548C28.0033 15.2115 27.9249 15.0784 27.802 15.0033L17.7088 9.19241C17.586 9.12076 17.4325 9.12076 17.3062 9.19241L7.21302 15.0033C7.08677 15.075 7.01172 15.2081 7.01172 15.3548Z" fill="white"/>
<path d="M31.7326 21.3098L34.4111 22.8623C34.6807 23.0193 35.0185 22.8248 35.0185 22.5143V15.8333C35.0185 15.5228 34.6807 15.3283 34.4111 15.4852L31.7326 17.0378C31.6097 17.1094 31.5312 17.2425 31.5312 17.3858V20.9618C31.5312 21.1051 31.6097 21.2381 31.7326 21.3098Z" fill="white"/>
<path d="M31.7086 12.9835L34.4008 11.431C34.6703 11.274 34.6703 10.8884 34.4008 10.7315L28.6171 7.39098C28.3476 7.23402 28.0098 7.43192 28.0098 7.74243L28.0234 10.8577C28.0234 11.001 28.1019 11.1341 28.2247 11.2058L31.3059 12.9835C31.4322 13.0552 31.5857 13.0552 31.7086 12.9835Z" fill="white"/>
<path d="M31.3059 25.3394L28.2247 27.1342C28.1019 27.2058 28.0234 27.3389 28.0234 27.4822L28.0098 30.6555C28.0098 30.9695 28.3476 31.1639 28.6171 31.007L34.4212 27.6051C34.6874 27.4481 34.6874 27.0625 34.4212 26.909L31.7086 25.3428C31.5823 25.2711 31.4288 25.2711 31.3025 25.3428" fill="white"/>
<path d="M24.524 8.36707L24.5103 5.25176C24.5103 5.10845 24.4318 4.97537 24.309 4.90372L17.7065 1.10257C17.5836 1.03091 17.4267 1.03091 17.3038 1.10257L10.7013 4.90372C10.575 4.97537 10.5 5.10845 10.5 5.25176L10.4863 8.36707C10.4863 8.67757 10.8207 8.87548 11.0903 8.71852L17.3004 5.13574C17.4267 5.06409 17.5802 5.06409 17.7031 5.13574L23.9132 8.71852C24.1827 8.87548 24.5206 8.67757 24.5171 8.36707" fill="white"/>
</svg>
