<svg width="20" height="20" viewBox="0 0 20 20" fill="none" xmlns="http://www.w3.org/2000/svg">
<path d="M9.17565 16.4168H10.7798V15.271C11.5437 15.1335 12.2007 14.8356 12.7507 14.3772C13.3007 13.9189 13.5757 13.2391 13.5757 12.3377C13.5757 11.696 13.3923 11.1078 13.0257 10.5731C12.659 10.0384 11.9257 9.57238 10.8257 9.17516C9.90898 8.86961 9.27496 8.60225 8.92357 8.37308C8.57218 8.14391 8.39648 7.83072 8.39648 7.4335C8.39648 7.03627 8.53796 6.72308 8.8209 6.49391C9.10323 6.26475 9.51176 6.15016 10.0465 6.15016C10.5354 6.15016 10.9173 6.26872 11.1923 6.50583C11.4673 6.74233 11.6659 7.03627 11.7882 7.38766L13.2548 6.79183C13.0868 6.25711 12.7775 5.79113 12.3272 5.39391C11.8762 4.99669 11.3757 4.77516 10.8257 4.72933V3.5835H9.22148V4.72933C8.45759 4.89738 7.86176 5.2335 7.43398 5.73766C7.00621 6.24183 6.79232 6.80711 6.79232 7.4335C6.79232 8.15155 7.00254 8.73211 7.42298 9.17516C7.84282 9.61822 8.50343 10.0002 9.40482 10.321C10.3673 10.6724 11.0359 10.9856 11.4105 11.2606C11.7845 11.5356 11.9715 11.8946 11.9715 12.3377C11.9715 12.8418 11.7918 13.2122 11.4325 13.4487C11.0738 13.6858 10.6423 13.8043 10.1382 13.8043C9.63398 13.8043 9.18726 13.6476 8.79798 13.3341C8.40809 13.0212 8.12148 12.5516 7.93815 11.9252L6.42565 12.521C6.63954 13.2543 6.97198 13.8465 7.42298 14.2975C7.87337 14.7479 8.4576 15.0571 9.17565 15.2252V16.4168ZM10.0007 19.1668C8.73259 19.1668 7.54093 18.9261 6.42565 18.4445C5.31037 17.9636 4.34023 17.3106 3.51523 16.4856C2.69023 15.6606 2.03726 14.6904 1.55632 13.5752C1.07476 12.4599 0.833984 11.2682 0.833984 10.0002C0.833984 8.73211 1.07476 7.54044 1.55632 6.42516C2.03726 5.30989 2.69023 4.33975 3.51523 3.51475C4.34023 2.68975 5.31037 2.03647 6.42565 1.55491C7.54093 1.07397 8.73259 0.833496 10.0007 0.833496C11.2687 0.833496 12.4604 1.07397 13.5757 1.55491C14.6909 2.03647 15.6611 2.68975 16.4861 3.51475C17.3111 4.33975 17.964 5.30989 18.445 6.42516C18.9265 7.54044 19.1673 8.73211 19.1673 10.0002C19.1673 11.2682 18.9265 12.4599 18.445 13.5752C17.964 14.6904 17.3111 15.6606 16.4861 16.4856C15.6611 17.3106 14.6909 17.9636 13.5757 18.4445C12.4604 18.9261 11.2687 19.1668 10.0007 19.1668Z" fill="#212A5B"/>
</svg>
