<svg width="39" height="38" viewBox="0 0 39 38" fill="none" xmlns="http://www.w3.org/2000/svg">
<path d="M15.8327 27.2501H12.166C11.9229 27.2501 11.6897 27.1535 11.5178 26.9816C11.3459 26.8097 11.2493 26.5765 11.2493 26.3334V22.6667C11.2493 22.4236 11.1528 22.1905 10.9809 22.0186C10.809 21.8467 10.5758 21.7501 10.3327 21.7501C10.0896 21.7501 9.85641 21.8467 9.6845 22.0186C9.51259 22.1905 9.41602 22.4236 9.41602 22.6667V26.3334C9.41602 27.0628 9.70575 27.7622 10.2215 28.278C10.7372 28.7937 11.4367 29.0834 12.166 29.0834H15.8327C16.0758 29.0834 16.309 28.9868 16.4809 28.8149C16.6528 28.643 16.7493 28.4099 16.7493 28.1667C16.7493 27.9236 16.6528 27.6905 16.4809 27.5186C16.309 27.3467 16.0758 27.2501 15.8327 27.2501ZM28.666 21.7501C28.4229 21.7501 28.1897 21.8467 28.0178 22.0186C27.8459 22.1905 27.7493 22.4236 27.7493 22.6667V26.3334C27.7493 26.5765 27.6528 26.8097 27.4809 26.9816C27.309 27.1535 27.0758 27.2501 26.8327 27.2501H23.166C22.9229 27.2501 22.6897 27.3467 22.5178 27.5186C22.3459 27.6905 22.2493 27.9236 22.2493 28.1667C22.2493 28.4099 22.3459 28.643 22.5178 28.8149C22.6897 28.9868 22.9229 29.0834 23.166 29.0834H26.8327C27.562 29.0834 28.2615 28.7937 28.7772 28.278C29.2929 27.7622 29.5827 27.0628 29.5827 26.3334V22.6667C29.5827 22.4236 29.4861 22.1905 29.3142 22.0186C29.1423 21.8467 28.9091 21.7501 28.666 21.7501ZM26.8327 8.91675H23.166C22.9229 8.91675 22.6897 9.01333 22.5178 9.18523C22.3459 9.35714 22.2493 9.5903 22.2493 9.83341C22.2493 10.0765 22.3459 10.3097 22.5178 10.4816C22.6897 10.6535 22.9229 10.7501 23.166 10.7501H26.8327C27.0758 10.7501 27.309 10.8467 27.4809 11.0186C27.6528 11.1905 27.7493 11.4236 27.7493 11.6667V15.3334C27.7493 15.5765 27.8459 15.8097 28.0178 15.9816C28.1897 16.1535 28.4229 16.2501 28.666 16.2501C28.9091 16.2501 29.1423 16.1535 29.3142 15.9816C29.4861 15.8097 29.5827 15.5765 29.5827 15.3334V11.6667C29.5827 10.9374 29.2929 10.2379 28.7772 9.7222C28.2615 9.20648 27.562 8.91675 26.8327 8.91675ZM10.3327 16.2501C10.5758 16.2501 10.809 16.1535 10.9809 15.9816C11.1528 15.8097 11.2493 15.5765 11.2493 15.3334V11.6667C11.2493 11.4236 11.3459 11.1905 11.5178 11.0186C11.6897 10.8467 11.9229 10.7501 12.166 10.7501H15.8327C16.0758 10.7501 16.309 10.6535 16.4809 10.4816C16.6528 10.3097 16.7493 10.0765 16.7493 9.83341C16.7493 9.5903 16.6528 9.35714 16.4809 9.18523C16.309 9.01333 16.0758 8.91675 15.8327 8.91675H12.166C11.4367 8.91675 10.7372 9.20648 10.2215 9.7222C9.70575 10.2379 9.41602 10.9374 9.41602 11.6667V15.3334C9.41602 15.5765 9.51259 15.8097 9.6845 15.9816C9.85641 16.1535 10.0896 16.2501 10.3327 16.2501ZM17.666 12.5834H13.9993C13.7562 12.5834 13.5231 12.68 13.3512 12.8519C13.1793 13.0238 13.0827 13.257 13.0827 13.5001V17.1667C13.0827 17.4099 13.1793 17.643 13.3512 17.8149C13.5231 17.9868 13.7562 18.0834 13.9993 18.0834H17.666C17.9091 18.0834 18.1423 17.9868 18.3142 17.8149C18.4861 17.643 18.5827 17.4099 18.5827 17.1667V13.5001C18.5827 13.257 18.4861 13.0238 18.3142 12.8519C18.1423 12.68 17.9091 12.5834 17.666 12.5834ZM16.7493 16.2501H14.916V14.4167H16.7493V16.2501ZM21.3327 18.0834H24.9993C25.2425 18.0834 25.4756 17.9868 25.6475 17.8149C25.8194 17.643 25.916 17.4099 25.916 17.1667V13.5001C25.916 13.257 25.8194 13.0238 25.6475 12.8519C25.4756 12.68 25.2425 12.5834 24.9993 12.5834H21.3327C21.0896 12.5834 20.8564 12.68 20.6845 12.8519C20.5126 13.0238 20.416 13.257 20.416 13.5001V17.1667C20.416 17.4099 20.5126 17.643 20.6845 17.8149C20.8564 17.9868 21.0896 18.0834 21.3327 18.0834ZM22.2493 14.4167H24.0827V16.2501H22.2493V14.4167ZM17.666 19.9167H13.9993C13.7562 19.9167 13.5231 20.0133 13.3512 20.1852C13.1793 20.3571 13.0827 20.5903 13.0827 20.8334V24.5001C13.0827 24.7432 13.1793 24.9764 13.3512 25.1483C13.5231 25.3202 13.7562 25.4167 13.9993 25.4167H17.666C17.9091 25.4167 18.1423 25.3202 18.3142 25.1483C18.4861 24.9764 18.5827 24.7432 18.5827 24.5001V20.8334C18.5827 20.5903 18.4861 20.3571 18.3142 20.1852C18.1423 20.0133 17.9091 19.9167 17.666 19.9167ZM16.7493 23.5834H14.916V21.7501H16.7493V23.5834ZM21.3327 22.6667C21.5758 22.6667 21.809 22.5702 21.9809 22.3983C22.1528 22.2264 22.2493 21.9932 22.2493 21.7501C22.4925 21.7501 22.7256 21.6535 22.8975 21.4816C23.0694 21.3097 23.166 21.0765 23.166 20.8334C23.166 20.5903 23.0694 20.3571 22.8975 20.1852C22.7256 20.0133 22.4925 19.9167 22.2493 19.9167H21.3327C21.0896 19.9167 20.8564 20.0133 20.6845 20.1852C20.5126 20.3571 20.416 20.5903 20.416 20.8334V21.7501C20.416 21.9932 20.5126 22.2264 20.6845 22.3983C20.8564 22.5702 21.0896 22.6667 21.3327 22.6667ZM24.9993 19.9167C24.7562 19.9167 24.5231 20.0133 24.3512 20.1852C24.1793 20.3571 24.0827 20.5903 24.0827 20.8334V23.5834C23.8396 23.5834 23.6064 23.68 23.4345 23.8519C23.2626 24.0238 23.166 24.257 23.166 24.5001C23.166 24.7432 23.2626 24.9764 23.4345 25.1483C23.6064 25.3202 23.8396 25.4167 24.0827 25.4167H24.9993C25.2425 25.4167 25.4756 25.3202 25.6475 25.1483C25.8194 24.9764 25.916 24.7432 25.916 24.5001V20.8334C25.916 20.5903 25.8194 20.3571 25.6475 20.1852C25.4756 20.0133 25.2425 19.9167 24.9993 19.9167ZM21.3327 23.5834C21.1514 23.5834 20.9742 23.6372 20.8234 23.7379C20.6727 23.8386 20.5552 23.9818 20.4858 24.1493C20.4164 24.3168 20.3983 24.5011 20.4336 24.6789C20.469 24.8567 20.5563 25.0201 20.6845 25.1483C20.8127 25.2765 20.976 25.3638 21.1538 25.3991C21.3317 25.4345 21.516 25.4164 21.6835 25.347C21.851 25.2776 21.9941 25.1601 22.0949 25.0094C22.1956 24.8586 22.2493 24.6814 22.2493 24.5001C22.2493 24.257 22.1528 24.0238 21.9809 23.8519C21.809 23.68 21.5758 23.5834 21.3327 23.5834Z" fill="white"/>
</svg>
