<svg width="27" height="26" viewBox="0 0 27 26" fill="none" xmlns="http://www.w3.org/2000/svg">
<circle cx="13.3163" cy="12.8393" r="12.8393" fill="#007AE9"/>
<g clip-path="url(#clip0_272_13340)">
<path d="M19.399 17.3316L14.3645 12.297L8.48251 6.41504H8.02283L7.92896 6.65354C7.68123 7.28307 7.57538 7.92694 7.6229 8.51547C7.67707 9.18632 7.93192 9.76712 8.35996 10.1952L12.9518 14.787L13.5574 14.1813L17.8025 18.9282C18.2248 19.3505 18.9517 19.3755 19.399 18.9282C19.8392 18.488 19.8392 17.7718 19.399 17.3316Z" fill="white"/>
<path d="M10.8278 13.7283L7.23148 17.3246C6.79133 17.7647 6.79133 18.4809 7.23148 18.9211C7.64961 19.3392 8.37295 19.3761 8.82799 18.9211L12.4243 15.3248L10.8278 13.7283Z" fill="white"/>
<path d="M19.1889 8.55742L17.1489 10.5974L16.6167 10.0652L18.6567 8.02522L18.1246 7.49304L16.0846 9.53304L15.5524 9.00086L17.5924 6.96086L17.0603 6.42871L14.3994 9.0896C14.0738 9.41512 13.8795 9.84735 13.852 10.3067C13.845 10.4231 13.8187 10.5376 13.7749 10.6464L15.5034 12.375C15.6123 12.3311 15.7268 12.3048 15.8432 12.2978C16.3025 12.2704 16.7347 12.076 17.0603 11.7505L19.7211 9.08963L19.1889 8.55742Z" fill="white"/>
</g>
<defs>
<clipPath id="clip0_272_13340">
<rect width="12.8393" height="12.8393" fill="white" transform="translate(6.89697 6.41992)"/>
</clipPath>
</defs>
</svg>
