<svg width="21" height="16" viewBox="0 0 21 16" fill="none" xmlns="http://www.w3.org/2000/svg">
<path d="M13.3636 15.2727C11.2318 15.2727 9.42614 14.533 7.94659 13.0534C6.46705 11.5739 5.72727 9.76818 5.72727 7.63636C5.72727 5.50455 6.46705 3.69886 7.94659 2.21932C9.42614 0.739773 11.2318 0 13.3636 0C15.4955 0 17.3011 0.739773 18.7807 2.21932C20.2602 3.69886 21 5.50455 21 7.63636C21 9.76818 20.2602 11.5739 18.7807 13.0534C17.3011 14.533 15.4955 15.2727 13.3636 15.2727ZM5.72727 15.0341C4.04091 14.5886 2.66477 13.6818 1.59886 12.3136C0.532954 10.9455 0 9.38636 0 7.63636C0 5.88636 0.532954 4.32727 1.59886 2.95909C2.66477 1.59091 4.04091 0.684091 5.72727 0.238636V2.24318C4.58182 2.64091 3.65909 3.33295 2.95909 4.31932C2.25909 5.30568 1.90909 6.41136 1.90909 7.63636C1.90909 8.86136 2.25909 9.96705 2.95909 10.9534C3.65909 11.9398 4.58182 12.6318 5.72727 13.0295V15.0341Z" fill="#212A5B"/>
</svg>
