<svg width="26" height="26" viewBox="0 0 26 26" fill="none" xmlns="http://www.w3.org/2000/svg">
<circle cx="13.0766" cy="12.8393" r="12.8393" fill="#007AE9"/>
<g clip-path="url(#clip0_272_13352)">
<path d="M13.1103 18.4774C14.0768 18.4774 14.8603 17.694 14.8603 16.7275C14.8603 15.761 14.0768 14.9775 13.1103 14.9775C12.1438 14.9775 11.3604 15.761 11.3604 16.7275C11.3604 17.694 12.1438 18.4774 13.1103 18.4774Z" fill="white"/>
<path d="M17.2924 12.5117C17.2664 12.485 17.239 12.4612 17.2123 12.4367L17.1337 12.3624C17.1207 12.3487 17.1063 12.3386 17.0897 12.3256C14.8269 10.2698 11.3638 10.3513 9.20411 12.511L8.95092 12.7649L8.60035 13.1155C8.17332 13.5425 8.17549 14.2386 8.60324 14.6664C9.03171 15.0955 9.72779 15.0963 10.1541 14.6692L10.7586 14.0648C12.132 12.6921 14.366 12.6921 15.7386 14.064L16.1751 14.4867C16.5978 14.9094 17.2873 14.9087 17.7122 14.4831C17.9178 14.2783 18.031 14.0049 18.0318 13.7142C18.0325 13.4249 17.9207 13.1516 17.7151 12.9474L17.2924 12.5117Z" fill="white"/>
<path d="M20.2745 10.3494L19.911 9.98584C19.9095 9.98439 19.9088 9.98223 19.9059 9.98151L19.6188 9.69297C19.5683 9.6432 19.5135 9.59992 19.4558 9.56241C15.7676 6.32436 10.1578 6.4239 6.58724 9.85888C6.56993 9.87475 6.55045 9.88557 6.53314 9.90288L5.87673 10.56C5.48721 10.9488 5.48937 11.5814 5.88106 11.9731C6.27202 12.3641 6.90463 12.367 7.29415 11.9767L7.95056 11.321C7.95489 11.3152 7.95849 11.3102 7.96282 11.3066C10.8503 8.5172 15.4308 8.49989 18.3413 11.2496L18.8578 11.7668C19.2466 12.1556 19.8807 12.1542 20.2716 11.7632C20.6619 11.3715 20.6633 10.7382 20.2745 10.3494Z" fill="white"/>
</g>
<defs>
<clipPath id="clip0_272_13352">
<rect width="14.9792" height="14.9792" fill="white" transform="translate(5.58594 5.34863)"/>
</clipPath>
</defs>
</svg>
